<svg xmlns="http://www.w3.org/2000/svg" xmlns:xlink="http://www.w3.org/1999/xlink" width="1030" zoomAndPan="magnify" viewBox="0 0 772.5 772.499976" height="1030" preserveAspectRatio="xMidYMid meet" version="1.0"><defs><clipPath id="cc9388eeaf"><path d="M 78.753906 142 L 679.117188 142 L 679.117188 557 L 78.753906 557 Z M 78.753906 142 " clip-rule="nonzero"/></clipPath><clipPath id="3c9f4c57fb"><path d="M 252.179688 271.3125 L 498 271.3125 L 498 496.90625 L 252.179688 496.90625 Z M 252.179688 271.3125 " clip-rule="nonzero"/></clipPath><clipPath id="fb8bdd9e0d"><path d="M 290.40625 271.3125 L 459.359375 271.3125 C 480.46875 271.3125 497.582031 288.425781 497.582031 309.535156 L 497.582031 458.679688 C 497.582031 479.792969 480.46875 496.90625 459.359375 496.90625 L 290.40625 496.90625 C 269.292969 496.90625 252.179688 479.792969 252.179688 458.679688 L 252.179688 309.535156 C 252.179688 288.425781 269.292969 271.3125 290.40625 271.3125 Z M 290.40625 271.3125 " clip-rule="nonzero"/></clipPath><clipPath id="a8a0e2e739"><path d="M 303.902344 402.679688 L 467.429688 402.679688 L 467.429688 529 L 303.902344 529 Z M 303.902344 402.679688 " clip-rule="nonzero"/></clipPath><clipPath id="a0e2f03994"><path d="M 307 402.679688 L 467.429688 402.679688 L 467.429688 657.992188 L 307 657.992188 Z M 307 402.679688 " clip-rule="nonzero"/></clipPath><clipPath id="2ee35ea5ce"><path d="M 303.902344 386 L 468.484375 386 L 468.484375 507.328125 L 303.902344 507.328125 Z M 303.902344 386 " clip-rule="nonzero"/></clipPath><clipPath id="3f1fac2d47"><path d="M 307 391 L 468.484375 391 L 468.484375 507.328125 L 307 507.328125 Z M 307 391 " clip-rule="nonzero"/></clipPath><clipPath id="9038f49e60"><path d="M 412.042969 476.316406 L 514.691406 476.316406 L 514.691406 540.253906 L 412.042969 540.253906 Z M 412.042969 476.316406 " clip-rule="nonzero"/></clipPath><clipPath id="2fb45620d7"><path d="M 444.011719 476.316406 L 482.484375 476.316406 C 500.140625 476.316406 514.453125 490.628906 514.453125 508.285156 C 514.453125 525.941406 500.140625 540.253906 482.484375 540.253906 L 444.011719 540.253906 C 426.355469 540.253906 412.042969 525.941406 412.042969 508.285156 C 412.042969 490.628906 426.355469 476.316406 444.011719 476.316406 Z M 444.011719 476.316406 " clip-rule="nonzero"/></clipPath><clipPath id="fcb705e945"><path d="M 252.179688 475.347656 L 354.832031 475.347656 L 354.832031 539.285156 L 252.179688 539.285156 Z M 252.179688 475.347656 " clip-rule="nonzero"/></clipPath><clipPath id="f128303ebc"><path d="M 284.148438 475.347656 L 322.625 475.347656 C 340.28125 475.347656 354.59375 489.660156 354.59375 507.316406 C 354.59375 524.972656 340.28125 539.285156 322.625 539.285156 L 284.148438 539.285156 C 266.492188 539.285156 252.179688 524.972656 252.179688 507.316406 C 252.179688 489.660156 266.492188 475.347656 284.148438 475.347656 Z M 284.148438 475.347656 " clip-rule="nonzero"/></clipPath></defs><path fill="#ffffff" d="M 0 0 L 772 0 L 772 772 L 0 772 Z M 0 0 " fill-opacity="1" fill-rule="nonzero"/><path fill="#ffffff" d="M 0 0 L 772 0 L 772 772 L 0 772 Z M 0 0 " fill-opacity="1" fill-rule="nonzero"/><g clip-path="url(#cc9388eeaf)"><path fill="#ff7ae3" d="M 385.648438 142.574219 C 488.742188 142.574219 570.0625 228.277344 567 328.347656 L 577.488281 328.347656 C 640.625 328.347656 691.8125 379.535156 691.8125 442.671875 C 691.8125 505.808594 640.625 556.996094 577.488281 556.996094 L 191.648438 556.996094 C 128.511719 556.996094 77.324219 505.808594 77.324219 442.671875 C 77.324219 379.535156 128.511719 328.347656 191.648438 328.347656 L 202.726562 328.347656 C 200.574219 227.164062 283.019531 142.574219 385.648438 142.574219 Z M 397.957031 290.175781 C 390.128906 283.910156 379.007812 283.910156 371.179688 290.175781 L 299.726562 347.335938 C 290.480469 354.730469 288.984375 368.222656 296.378906 377.464844 C 303.773438 386.710938 317.261719 388.207031 326.507812 380.816406 L 363.132812 351.515625 L 363.132812 478.398438 C 363.132812 490.234375 372.730469 499.832031 384.570312 499.832031 C 396.40625 499.832031 406.003906 490.234375 406.003906 478.398438 L 406.003906 351.515625 L 442.628906 380.816406 C 451.875 388.207031 465.363281 386.710938 472.761719 377.464844 C 480.152344 368.222656 478.65625 354.730469 469.410156 347.335938 Z M 397.957031 290.175781 " fill-opacity="1" fill-rule="evenodd"/></g><g clip-path="url(#3c9f4c57fb)"><g clip-path="url(#fb8bdd9e0d)"><path fill="#ff7ae3" d="M 252.179688 271.3125 L 497.164062 271.3125 L 497.164062 496.90625 L 252.179688 496.90625 Z M 252.179688 271.3125 " fill-opacity="1" fill-rule="nonzero"/></g></g><g clip-path="url(#a8a0e2e739)"><path fill="#0026a3" d="M 579.996094 253.1875 L 570.886719 253.1875 C 570.375 152.921875 488.65625 71.515625 388.273438 71.515625 C 287.890625 71.515625 206.171875 152.882812 205.660156 253.1875 L 196.550781 253.1875 C 194.292969 253.1875 192.039062 253.242188 189.785156 253.351562 C 187.53125 253.464844 185.28125 253.628906 183.035156 253.851562 C 180.789062 254.070312 178.546875 254.347656 176.316406 254.679688 C 174.082031 255.011719 171.859375 255.394531 169.648438 255.835938 C 167.433594 256.277344 165.230469 256.769531 163.042969 257.320312 C 160.855469 257.867188 158.679688 258.46875 156.519531 259.125 C 154.359375 259.78125 152.21875 260.488281 150.09375 261.25 C 147.96875 262.007812 145.863281 262.820312 143.777344 263.683594 C 141.691406 264.546875 139.628906 265.460938 137.589844 266.425781 C 135.550781 267.390625 133.535156 268.40625 131.542969 269.46875 C 129.554688 270.535156 127.589844 271.644531 125.65625 272.804688 C 123.71875 273.964844 121.8125 275.171875 119.9375 276.425781 C 118.058594 277.679688 116.214844 278.980469 114.402344 280.324219 C 112.589844 281.667969 110.8125 283.058594 109.066406 284.488281 C 107.320312 285.921875 105.613281 287.394531 103.941406 288.910156 C 102.269531 290.425781 100.632812 291.980469 99.039062 293.578125 C 97.441406 295.171875 95.886719 296.808594 94.371094 298.480469 C 92.855469 300.152344 91.382812 301.859375 89.949219 303.605469 C 88.519531 305.347656 87.128906 307.128906 85.785156 308.941406 C 84.441406 310.753906 83.144531 312.597656 81.890625 314.476562 C 80.636719 316.351562 79.429688 318.257812 78.265625 320.191406 C 77.105469 322.128906 75.996094 324.09375 74.929688 326.082031 C 73.867188 328.074219 72.851562 330.089844 71.886719 332.128906 C 70.921875 334.167969 70.007812 336.230469 69.144531 338.316406 C 68.28125 340.402344 67.46875 342.507812 66.710938 344.632812 C 65.949219 346.757812 65.242188 348.898438 64.585938 351.058594 C 63.929688 353.21875 63.328125 355.390625 62.78125 357.582031 C 62.230469 359.769531 61.738281 361.972656 61.296875 364.1875 C 60.859375 366.398438 60.472656 368.621094 60.140625 370.855469 C 59.808594 373.085938 59.535156 375.328125 59.3125 377.574219 C 59.089844 379.820312 58.925781 382.070312 58.8125 384.324219 C 58.703125 386.578125 58.648438 388.832031 58.648438 391.089844 C 58.648438 393.347656 58.703125 395.601562 58.8125 397.855469 C 58.925781 400.109375 59.089844 402.359375 59.3125 404.605469 C 59.535156 406.851562 59.808594 409.089844 60.140625 411.324219 C 60.472656 413.554688 60.859375 415.777344 61.296875 417.992188 C 61.738281 420.207031 62.230469 422.40625 62.78125 424.597656 C 63.328125 426.785156 63.929688 428.960938 64.585938 431.121094 C 65.242188 433.28125 65.949219 435.421875 66.710938 437.546875 C 67.46875 439.671875 68.28125 441.777344 69.144531 443.863281 C 70.007812 445.949219 70.921875 448.011719 71.886719 450.050781 C 72.851562 452.089844 73.867188 454.105469 74.929688 456.097656 C 75.996094 458.085938 77.105469 460.050781 78.265625 461.984375 C 79.429688 463.921875 80.636719 465.828125 81.890625 467.703125 C 83.144531 469.582031 84.441406 471.425781 85.785156 473.238281 C 87.128906 475.050781 88.519531 476.828125 89.949219 478.574219 C 91.382812 480.316406 92.855469 482.027344 94.371094 483.699219 C 95.886719 485.371094 97.441406 487.003906 99.039062 488.601562 C 100.632812 490.195312 102.269531 491.753906 103.941406 493.269531 C 105.613281 494.785156 107.320312 496.257812 109.066406 497.6875 C 110.8125 499.121094 112.589844 500.507812 114.402344 501.855469 C 116.214844 503.199219 118.058594 504.496094 119.9375 505.75 C 121.8125 507.003906 123.71875 508.210938 125.65625 509.371094 C 127.589844 510.53125 129.554688 511.644531 131.542969 512.707031 C 133.535156 513.773438 135.550781 514.785156 137.589844 515.75 C 139.628906 516.714844 141.691406 517.632812 143.777344 518.496094 C 145.863281 519.359375 147.96875 520.171875 150.09375 520.929688 C 152.21875 521.691406 154.359375 522.398438 156.519531 523.054688 C 158.679688 523.707031 160.855469 524.3125 163.042969 524.859375 C 165.230469 525.40625 167.433594 525.902344 169.648438 526.34375 C 171.859375 526.78125 174.082031 527.167969 176.316406 527.5 C 178.546875 527.832031 180.789062 528.105469 183.035156 528.328125 C 185.28125 528.550781 187.53125 528.714844 189.785156 528.824219 C 192.039062 528.9375 194.292969 528.992188 196.550781 528.992188 L 310.398438 528.992188 C 311.085938 528.992188 311.769531 528.925781 312.445312 528.789062 C 313.121094 528.65625 313.777344 528.457031 314.414062 528.191406 C 315.050781 527.929688 315.65625 527.605469 316.230469 527.222656 C 316.804688 526.839844 317.332031 526.402344 317.820312 525.917969 C 318.308594 525.429688 318.742188 524.898438 319.125 524.324219 C 319.511719 523.753906 319.832031 523.148438 320.097656 522.511719 C 320.359375 521.875 320.558594 521.21875 320.695312 520.542969 C 320.828125 519.863281 320.894531 519.183594 320.894531 518.492188 C 320.894531 517.804688 320.828125 517.121094 320.695312 516.445312 C 320.558594 515.769531 320.359375 515.113281 320.097656 514.476562 C 319.832031 513.839844 319.511719 513.234375 319.125 512.660156 C 318.742188 512.085938 318.308594 511.554688 317.820312 511.070312 C 317.332031 510.582031 316.804688 510.144531 316.230469 509.761719 C 315.65625 509.378906 315.050781 509.058594 314.414062 508.792969 C 313.777344 508.53125 313.121094 508.332031 312.445312 508.195312 C 311.769531 508.0625 311.085938 507.992188 310.398438 507.992188 L 196.550781 507.992188 C 194.636719 507.992188 192.726562 507.945312 190.8125 507.851562 C 188.902344 507.757812 186.996094 507.617188 185.089844 507.429688 C 183.1875 507.242188 181.289062 507.007812 179.398438 506.730469 C 177.503906 506.449219 175.621094 506.121094 173.742188 505.746094 C 171.867188 505.375 170 504.957031 168.144531 504.492188 C 166.289062 504.027344 164.445312 503.515625 162.613281 502.960938 C 160.785156 502.40625 158.96875 501.804688 157.167969 501.160156 C 155.363281 500.515625 153.582031 499.828125 151.8125 499.09375 C 150.046875 498.363281 148.296875 497.589844 146.566406 496.769531 C 144.835938 495.953125 143.128906 495.09375 141.441406 494.191406 C 139.753906 493.289062 138.089844 492.34375 136.449219 491.363281 C 134.808594 490.378906 133.191406 489.355469 131.601562 488.292969 C 130.011719 487.230469 128.445312 486.128906 126.910156 484.988281 C 125.375 483.847656 123.867188 482.671875 122.386719 481.457031 C 120.90625 480.246094 119.460938 478.996094 118.042969 477.710938 C 116.625 476.425781 115.238281 475.105469 113.886719 473.753906 C 112.535156 472.402344 111.214844 471.015625 109.929688 469.597656 C 108.644531 468.179688 107.394531 466.730469 106.183594 465.253906 C 104.96875 463.773438 103.792969 462.265625 102.652344 460.730469 C 101.511719 459.191406 100.410156 457.628906 99.347656 456.039062 C 98.285156 454.449219 97.261719 452.832031 96.277344 451.191406 C 95.292969 449.550781 94.351562 447.886719 93.449219 446.199219 C 92.546875 444.511719 91.6875 442.800781 90.871094 441.074219 C 90.050781 439.34375 89.277344 437.59375 88.542969 435.828125 C 87.8125 434.058594 87.125 432.273438 86.480469 430.472656 C 85.835938 428.671875 85.234375 426.855469 84.679688 425.023438 C 84.125 423.195312 83.613281 421.351562 83.148438 419.496094 C 82.683594 417.640625 82.265625 415.773438 81.890625 413.894531 C 81.519531 412.019531 81.191406 410.136719 80.910156 408.242188 C 80.628906 406.351562 80.394531 404.453125 80.207031 402.546875 C 80.019531 400.644531 79.878906 398.738281 79.785156 396.824219 C 79.691406 394.914062 79.644531 393.003906 79.644531 391.089844 C 79.644531 389.175781 79.691406 387.265625 79.785156 385.351562 C 79.878906 383.441406 80.019531 381.535156 80.207031 379.628906 C 80.394531 377.726562 80.628906 375.828125 80.910156 373.9375 C 81.191406 372.042969 81.519531 370.160156 81.890625 368.28125 C 82.265625 366.40625 82.683594 364.539062 83.148438 362.683594 C 83.613281 360.828125 84.125 358.984375 84.679688 357.152344 C 85.234375 355.324219 85.835938 353.507812 86.480469 351.707031 C 87.125 349.902344 87.8125 348.121094 88.542969 346.351562 C 89.277344 344.585938 90.050781 342.835938 90.871094 341.105469 C 91.6875 339.375 92.546875 337.667969 93.449219 335.980469 C 94.351562 334.292969 95.292969 332.628906 96.277344 330.988281 C 97.261719 329.347656 98.285156 327.730469 99.347656 326.140625 C 100.410156 324.550781 101.511719 322.984375 102.652344 321.449219 C 103.792969 319.914062 104.96875 318.40625 106.183594 316.925781 C 107.394531 315.445312 108.644531 314 109.929688 312.582031 C 111.214844 311.164062 112.535156 309.777344 113.886719 308.425781 C 115.238281 307.074219 116.625 305.753906 118.042969 304.46875 C 119.460938 303.183594 120.90625 301.933594 122.386719 300.722656 C 123.867188 299.507812 125.375 298.332031 126.910156 297.191406 C 128.445312 296.050781 130.011719 294.949219 131.601562 293.886719 C 133.191406 292.824219 134.808594 291.800781 136.449219 290.816406 C 138.089844 289.832031 139.753906 288.890625 141.441406 287.988281 C 143.128906 287.085938 144.835938 286.226562 146.566406 285.410156 C 148.296875 284.589844 150.046875 283.816406 151.8125 283.082031 C 153.582031 282.351562 155.363281 281.664062 157.167969 281.019531 C 158.96875 280.375 160.785156 279.773438 162.613281 279.21875 C 164.445312 278.664062 166.289062 278.152344 168.144531 277.6875 C 170 277.222656 171.867188 276.804688 173.742188 276.429688 C 175.621094 276.058594 177.503906 275.730469 179.398438 275.449219 C 181.289062 275.167969 183.1875 274.933594 185.089844 274.746094 C 186.996094 274.558594 188.902344 274.417969 190.8125 274.324219 C 192.726562 274.230469 194.636719 274.183594 196.550781 274.183594 L 216.15625 274.183594 C 216.847656 274.183594 217.527344 274.117188 218.207031 273.984375 C 218.882812 273.847656 219.539062 273.648438 220.175781 273.386719 C 220.8125 273.121094 221.417969 272.796875 221.988281 272.414062 C 222.5625 272.03125 223.09375 271.597656 223.582031 271.109375 C 224.066406 270.621094 224.503906 270.089844 224.886719 269.519531 C 225.269531 268.945312 225.59375 268.339844 225.855469 267.703125 C 226.121094 267.066406 226.320312 266.410156 226.453125 265.734375 C 226.589844 265.058594 226.65625 264.375 226.65625 263.6875 L 226.65625 254.132812 C 226.65625 251.488281 226.722656 248.84375 226.851562 246.203125 C 226.980469 243.558594 227.175781 240.921875 227.433594 238.289062 C 227.695312 235.660156 228.015625 233.035156 228.40625 230.417969 C 228.792969 227.800781 229.246094 225.195312 229.761719 222.601562 C 230.277344 220.007812 230.855469 217.429688 231.5 214.863281 C 232.140625 212.296875 232.847656 209.746094 233.613281 207.21875 C 234.382812 204.6875 235.210938 202.175781 236.101562 199.683594 C 236.996094 197.195312 237.945312 194.726562 238.957031 192.285156 C 239.96875 189.839844 241.042969 187.421875 242.171875 185.03125 C 243.304688 182.640625 244.492188 180.277344 245.738281 177.945312 C 246.984375 175.613281 248.289062 173.3125 249.648438 171.042969 C 251.007812 168.777344 252.421875 166.542969 253.894531 164.34375 C 255.363281 162.144531 256.886719 159.980469 258.460938 157.855469 C 260.035156 155.730469 261.664062 153.648438 263.339844 151.601562 C 265.019531 149.558594 266.746094 147.554688 268.523438 145.597656 C 270.300781 143.636719 272.121094 141.722656 273.992188 139.851562 C 275.863281 137.980469 277.777344 136.15625 279.738281 134.382812 C 281.699219 132.605469 283.699219 130.878906 285.742188 129.199219 C 287.789062 127.523438 289.875 125.894531 291.996094 124.320312 C 294.121094 122.746094 296.285156 121.222656 298.484375 119.753906 C 300.683594 118.28125 302.917969 116.867188 305.183594 115.507812 C 307.453125 114.148438 309.753906 112.84375 312.085938 111.597656 C 314.417969 110.351562 316.78125 109.164062 319.171875 108.03125 C 321.5625 106.902344 323.980469 105.828125 326.425781 104.816406 C 328.867188 103.804688 331.335938 102.855469 333.824219 101.960938 C 336.316406 101.070312 338.828125 100.242188 341.359375 99.472656 C 343.890625 98.707031 346.4375 98 349.003906 97.359375 C 351.570312 96.714844 354.148438 96.136719 356.742188 95.621094 C 359.335938 95.105469 361.941406 94.652344 364.558594 94.265625 C 367.175781 93.875 369.800781 93.550781 372.429688 93.292969 C 375.0625 93.035156 377.699219 92.839844 380.34375 92.710938 C 382.984375 92.578125 385.628906 92.515625 388.273438 92.515625 C 390.917969 92.515625 393.5625 92.578125 396.203125 92.710938 C 398.84375 92.839844 401.480469 93.035156 404.113281 93.292969 C 406.746094 93.550781 409.371094 93.875 411.988281 94.265625 C 414.601562 94.652344 417.207031 95.105469 419.800781 95.621094 C 422.398438 96.136719 424.976562 96.714844 427.542969 97.359375 C 430.109375 98 432.65625 98.707031 435.1875 99.472656 C 437.71875 100.242188 440.230469 101.070312 442.71875 101.960938 C 445.210938 102.855469 447.675781 103.804688 450.121094 104.816406 C 452.5625 105.828125 454.980469 106.902344 457.371094 108.03125 C 459.765625 109.164062 462.125 110.351562 464.457031 111.597656 C 466.789062 112.84375 469.089844 114.148438 471.359375 115.507812 C 473.628906 116.867188 475.863281 118.28125 478.0625 119.753906 C 480.261719 121.222656 482.421875 122.746094 484.546875 124.320312 C 486.671875 125.894531 488.757812 127.523438 490.800781 129.199219 C 492.847656 130.878906 494.847656 132.605469 496.808594 134.382812 C 498.769531 136.15625 500.683594 137.980469 502.554688 139.851562 C 504.421875 141.722656 506.246094 143.636719 508.023438 145.597656 C 509.800781 147.554688 511.527344 149.558594 513.203125 151.601562 C 514.882812 153.648438 516.507812 155.730469 518.085938 157.855469 C 519.660156 159.980469 521.183594 162.144531 522.652344 164.34375 C 524.121094 166.542969 525.535156 168.777344 526.894531 171.042969 C 528.253906 173.3125 529.558594 175.613281 530.804688 177.945312 C 532.050781 180.277344 533.242188 182.640625 534.371094 185.03125 C 535.503906 187.421875 536.574219 189.839844 537.585938 192.285156 C 538.597656 194.726562 539.550781 197.195312 540.441406 199.683594 C 541.332031 202.175781 542.164062 204.6875 542.929688 207.21875 C 543.699219 209.746094 544.402344 212.296875 545.046875 214.863281 C 545.6875 217.429688 546.269531 220.007812 546.785156 222.601562 C 547.300781 225.195312 547.753906 227.800781 548.140625 230.417969 C 548.527344 233.035156 548.851562 235.660156 549.109375 238.289062 C 549.371094 240.921875 549.566406 243.558594 549.695312 246.203125 C 549.824219 248.84375 549.890625 251.488281 549.890625 254.132812 L 549.890625 263.6875 C 549.890625 264.375 549.957031 265.058594 550.089844 265.734375 C 550.226562 266.410156 550.425781 267.066406 550.6875 267.703125 C 550.953125 268.339844 551.277344 268.945312 551.660156 269.519531 C 552.042969 270.089844 552.476562 270.621094 552.964844 271.109375 C 553.453125 271.597656 553.980469 272.03125 554.554688 272.414062 C 555.128906 272.796875 555.734375 273.121094 556.371094 273.386719 C 557.007812 273.648438 557.664062 273.847656 558.339844 273.984375 C 559.015625 274.117188 559.699219 274.183594 560.386719 274.183594 L 579.996094 274.183594 C 581.90625 274.183594 583.820312 274.230469 585.730469 274.324219 C 587.640625 274.417969 589.550781 274.558594 591.453125 274.746094 C 593.359375 274.933594 595.253906 275.167969 597.148438 275.449219 C 599.039062 275.730469 600.925781 276.058594 602.800781 276.429688 C 604.679688 276.804688 606.542969 277.222656 608.398438 277.6875 C 610.257812 278.152344 612.101562 278.664062 613.929688 279.21875 C 615.761719 279.773438 617.578125 280.375 619.378906 281.019531 C 621.179688 281.664062 622.964844 282.351562 624.730469 283.082031 C 626.5 283.816406 628.25 284.589844 629.976562 285.410156 C 631.707031 286.226562 633.417969 287.085938 635.101562 287.988281 C 636.789062 288.890625 638.453125 289.832031 640.097656 290.816406 C 641.738281 291.800781 643.351562 292.824219 644.945312 293.886719 C 646.535156 294.949219 648.097656 296.050781 649.636719 297.191406 C 651.171875 298.332031 652.679688 299.507812 654.160156 300.722656 C 655.636719 301.933594 657.085938 303.183594 658.503906 304.46875 C 659.921875 305.753906 661.304688 307.074219 662.660156 308.425781 C 664.011719 309.777344 665.332031 311.164062 666.617188 312.582031 C 667.902344 314 669.148438 315.445312 670.363281 316.925781 C 671.578125 318.40625 672.753906 319.914062 673.894531 321.449219 C 675.035156 322.984375 676.132812 324.550781 677.199219 326.140625 C 678.261719 327.730469 679.285156 329.347656 680.265625 330.988281 C 681.25 332.628906 682.195312 334.292969 683.09375 335.980469 C 683.996094 337.667969 684.859375 339.375 685.675781 341.105469 C 686.492188 342.835938 687.269531 344.585938 688 346.351562 C 688.734375 348.121094 689.421875 349.902344 690.066406 351.707031 C 690.710938 353.507812 691.308594 355.324219 691.867188 357.152344 C 692.421875 358.984375 692.929688 360.828125 693.394531 362.683594 C 693.859375 364.539062 694.28125 366.40625 694.652344 368.28125 C 695.027344 370.160156 695.355469 372.042969 695.632812 373.9375 C 695.914062 375.828125 696.148438 377.726562 696.335938 379.628906 C 696.523438 381.535156 696.664062 383.441406 696.757812 385.351562 C 696.851562 387.265625 696.898438 389.175781 696.898438 391.089844 C 696.898438 393.003906 696.851562 394.914062 696.757812 396.824219 C 696.664062 398.738281 696.523438 400.644531 696.335938 402.546875 C 696.148438 404.453125 695.914062 406.351562 695.632812 408.242188 C 695.355469 410.136719 695.027344 412.019531 694.652344 413.894531 C 694.28125 415.773438 693.859375 417.640625 693.394531 419.496094 C 692.929688 421.351562 692.421875 423.195312 691.867188 425.023438 C 691.308594 426.855469 690.710938 428.671875 690.066406 430.472656 C 689.421875 432.273438 688.734375 434.058594 688 435.828125 C 687.269531 437.59375 686.492188 439.34375 685.675781 441.074219 C 684.859375 442.800781 683.996094 444.511719 683.09375 446.199219 C 682.195312 447.886719 681.25 449.550781 680.265625 451.191406 C 679.285156 452.832031 678.261719 454.449219 677.199219 456.039062 C 676.132812 457.628906 675.035156 459.191406 673.894531 460.730469 C 672.753906 462.265625 671.578125 463.773438 670.363281 465.253906 C 669.148438 466.730469 667.902344 468.179688 666.617188 469.597656 C 665.332031 471.015625 664.011719 472.402344 662.660156 473.753906 C 661.304688 475.105469 659.921875 476.425781 658.503906 477.710938 C 657.085938 478.996094 655.636719 480.246094 654.160156 481.457031 C 652.679688 482.671875 651.171875 483.847656 649.636719 484.988281 C 648.097656 486.128906 646.535156 487.230469 644.945312 488.292969 C 643.351562 489.355469 641.738281 490.378906 640.097656 491.363281 C 638.453125 492.34375 636.789062 493.289062 635.101562 494.191406 C 633.417969 495.09375 631.707031 495.953125 629.976562 496.769531 C 628.25 497.589844 626.5 498.363281 624.730469 499.09375 C 622.964844 499.828125 621.179688 500.515625 619.378906 501.160156 C 617.578125 501.804688 615.761719 502.40625 613.929688 502.960938 C 612.101562 503.515625 610.257812 504.027344 608.398438 504.492188 C 606.542969 504.957031 604.679688 505.375 602.800781 505.746094 C 600.925781 506.121094 599.039062 506.449219 597.148438 506.730469 C 595.253906 507.007812 593.359375 507.242188 591.453125 507.429688 C 589.550781 507.617188 587.640625 507.757812 585.730469 507.851562 C 583.820312 507.945312 581.90625 507.992188 579.996094 507.992188 L 462.472656 507.992188 C 461.785156 507.992188 461.101562 508.0625 460.425781 508.195312 C 459.75 508.332031 459.09375 508.53125 458.457031 508.792969 C 457.820312 509.058594 457.214844 509.378906 456.640625 509.761719 C 456.066406 510.144531 455.535156 510.582031 455.050781 511.070312 C 454.5625 511.554688 454.125 512.085938 453.742188 512.660156 C 453.359375 513.234375 453.039062 513.839844 452.773438 514.476562 C 452.511719 515.113281 452.3125 515.769531 452.175781 516.445312 C 452.042969 517.121094 451.972656 517.804688 451.972656 518.492188 C 451.972656 519.183594 452.042969 519.863281 452.175781 520.542969 C 452.3125 521.21875 452.511719 521.875 452.773438 522.511719 C 453.039062 523.148438 453.359375 523.753906 453.742188 524.324219 C 454.125 524.898438 454.5625 525.429688 455.050781 525.917969 C 455.535156 526.402344 456.066406 526.839844 456.640625 527.222656 C 457.214844 527.605469 457.820312 527.929688 458.457031 528.191406 C 459.09375 528.457031 459.75 528.65625 460.425781 528.789062 C 461.101562 528.925781 461.785156 528.992188 462.472656 528.992188 L 579.996094 528.992188 C 582.25 528.992188 584.507812 528.9375 586.761719 528.824219 C 589.015625 528.714844 591.265625 528.550781 593.511719 528.328125 C 595.757812 528.105469 597.996094 527.832031 600.230469 527.5 C 602.460938 527.167969 604.683594 526.78125 606.898438 526.34375 C 609.113281 525.902344 611.3125 525.40625 613.503906 524.859375 C 615.691406 524.3125 617.867188 523.707031 620.027344 523.054688 C 622.1875 522.398438 624.328125 521.691406 626.453125 520.929688 C 628.578125 520.171875 630.683594 519.359375 632.769531 518.496094 C 634.851562 517.632812 636.914062 516.714844 638.957031 515.75 C 640.996094 514.785156 643.011719 513.773438 645 512.707031 C 646.992188 511.644531 648.953125 510.53125 650.890625 509.371094 C 652.828125 508.210938 654.734375 507.003906 656.609375 505.75 C 658.484375 504.496094 660.332031 503.199219 662.144531 501.855469 C 663.957031 500.507812 665.734375 499.121094 667.480469 497.6875 C 669.222656 496.257812 670.933594 494.785156 672.605469 493.269531 C 674.277344 491.753906 675.910156 490.195312 677.507812 488.601562 C 679.101562 487.003906 680.65625 485.371094 682.171875 483.699219 C 683.691406 482.027344 685.164062 480.316406 686.59375 478.574219 C 688.027344 476.828125 689.414062 475.050781 690.757812 473.238281 C 692.105469 471.425781 693.402344 469.582031 694.65625 467.703125 C 695.910156 465.828125 697.117188 463.921875 698.277344 461.984375 C 699.4375 460.050781 700.550781 458.085938 701.613281 456.097656 C 702.679688 454.105469 703.691406 452.089844 704.65625 450.050781 C 705.621094 448.011719 706.535156 445.949219 707.398438 443.863281 C 708.265625 441.777344 709.074219 439.671875 709.835938 437.546875 C 710.597656 435.421875 711.304688 433.28125 711.960938 431.121094 C 712.613281 428.960938 713.214844 426.785156 713.765625 424.597656 C 714.3125 422.40625 714.808594 420.207031 715.246094 417.992188 C 715.6875 415.777344 716.074219 413.554688 716.40625 411.324219 C 716.734375 409.089844 717.011719 406.851562 717.234375 404.605469 C 717.453125 402.359375 717.621094 400.109375 717.730469 397.855469 C 717.84375 395.601562 717.898438 393.347656 717.898438 391.089844 C 717.898438 388.832031 717.84375 386.578125 717.730469 384.324219 C 717.621094 382.070312 717.453125 379.820312 717.234375 377.574219 C 717.011719 375.328125 716.734375 373.085938 716.40625 370.855469 C 716.074219 368.621094 715.6875 366.398438 715.246094 364.1875 C 714.808594 361.972656 714.3125 359.769531 713.765625 357.582031 C 713.214844 355.390625 712.613281 353.21875 711.960938 351.058594 C 711.304688 348.898438 710.597656 346.757812 709.835938 344.632812 C 709.074219 342.507812 708.265625 340.402344 707.398438 338.316406 C 706.535156 336.230469 705.621094 334.167969 704.65625 332.128906 C 703.691406 330.089844 702.679688 328.074219 701.613281 326.082031 C 700.550781 324.09375 699.4375 322.128906 698.277344 320.191406 C 697.117188 318.257812 695.910156 316.351562 694.65625 314.476562 C 693.402344 312.597656 692.105469 310.753906 690.757812 308.941406 C 689.414062 307.128906 688.027344 305.347656 686.59375 303.605469 C 685.164062 301.859375 683.691406 300.152344 682.171875 298.480469 C 680.660156 296.808594 679.101562 295.171875 677.507812 293.578125 C 675.910156 291.980469 674.277344 290.425781 672.605469 288.910156 C 670.933594 287.394531 669.222656 285.921875 667.480469 284.488281 C 665.734375 283.058594 663.957031 281.667969 662.144531 280.324219 C 660.332031 278.980469 658.484375 277.679688 656.609375 276.425781 C 654.734375 275.171875 652.828125 273.964844 650.890625 272.804688 C 648.953125 271.644531 646.992188 270.535156 645 269.46875 C 643.011719 268.40625 640.996094 267.390625 638.957031 266.425781 C 636.914062 265.460938 634.851562 264.546875 632.769531 263.683594 C 630.683594 262.820312 628.578125 262.007812 626.453125 261.25 C 624.328125 260.488281 622.1875 259.78125 620.027344 259.125 C 617.867188 258.46875 615.691406 257.867188 613.503906 257.320312 C 611.3125 256.769531 609.113281 256.277344 606.898438 255.835938 C 604.683594 255.394531 602.460938 255.011719 600.230469 254.679688 C 597.996094 254.347656 595.757812 254.070312 593.511719 253.851562 C 591.265625 253.628906 589.015625 253.464844 586.761719 253.351562 C 584.507812 253.242188 582.25 253.1875 579.996094 253.1875 Z M 579.996094 253.1875 " fill-opacity="1" fill-rule="nonzero"/></g><g clip-path="url(#a0e2f03994)"><path fill="#0026a3" d="M 450.675781 570.5 L 398.773438 622.40625 L 398.773438 340.027344 C 398.773438 339.335938 398.703125 338.652344 398.570312 337.976562 C 398.433594 337.300781 398.234375 336.644531 397.972656 336.007812 C 397.707031 335.371094 397.386719 334.765625 397.003906 334.191406 C 396.617188 333.621094 396.183594 333.089844 395.695312 332.601562 C 395.210938 332.113281 394.679688 331.679688 394.105469 331.296875 C 393.53125 330.914062 392.925781 330.589844 392.289062 330.324219 C 391.652344 330.0625 390.996094 329.863281 390.320312 329.726562 C 389.644531 329.59375 388.960938 329.527344 388.273438 329.527344 C 387.582031 329.527344 386.902344 329.59375 386.222656 329.726562 C 385.546875 329.863281 384.890625 330.0625 384.253906 330.324219 C 383.617188 330.589844 383.011719 330.914062 382.441406 331.296875 C 381.867188 331.679688 381.335938 332.113281 380.847656 332.601562 C 380.363281 333.089844 379.925781 333.621094 379.542969 334.191406 C 379.160156 334.765625 378.835938 335.371094 378.574219 336.007812 C 378.308594 336.644531 378.109375 337.300781 377.976562 337.976562 C 377.839844 338.652344 377.773438 339.335938 377.773438 340.027344 L 377.773438 622.40625 L 325.871094 570.5 C 325.382812 570.015625 324.851562 569.578125 324.277344 569.195312 C 323.703125 568.8125 323.101562 568.492188 322.460938 568.226562 C 321.824219 567.964844 321.167969 567.765625 320.492188 567.628906 C 319.816406 567.496094 319.132812 567.429688 318.445312 567.429688 C 317.753906 567.429688 317.070312 567.496094 316.394531 567.632812 C 315.71875 567.765625 315.0625 567.964844 314.425781 568.230469 C 313.789062 568.496094 313.183594 568.820312 312.613281 569.203125 C 312.039062 569.585938 311.507812 570.019531 311.019531 570.507812 C 310.535156 570.996094 310.097656 571.527344 309.714844 572.101562 C 309.332031 572.671875 309.007812 573.277344 308.746094 573.914062 C 308.484375 574.554688 308.285156 575.210938 308.148438 575.886719 C 308.015625 576.5625 307.949219 577.246094 307.949219 577.933594 C 307.949219 578.625 308.015625 579.304688 308.152344 579.984375 C 308.285156 580.660156 308.484375 581.316406 308.75 581.953125 C 309.015625 582.589844 309.335938 583.195312 309.722656 583.765625 C 310.105469 584.339844 310.539062 584.871094 311.027344 585.359375 L 380.84375 655.1875 C 381.332031 655.675781 381.863281 656.113281 382.4375 656.496094 C 383.007812 656.878906 383.613281 657.203125 384.253906 657.46875 C 384.890625 657.730469 385.546875 657.929688 386.222656 658.066406 C 386.898438 658.199219 387.582031 658.265625 388.273438 658.265625 C 388.960938 658.265625 389.644531 658.199219 390.324219 658.066406 C 391 657.929688 391.65625 657.730469 392.292969 657.46875 C 392.929688 657.203125 393.535156 656.878906 394.109375 656.496094 C 394.683594 656.113281 395.214844 655.675781 395.699219 655.1875 L 465.519531 585.359375 C 465.984375 584.867188 466.402344 584.335938 466.765625 583.761719 C 467.128906 583.191406 467.433594 582.589844 467.679688 581.957031 C 467.929688 581.324219 468.113281 580.675781 468.234375 580.007812 C 468.355469 579.34375 468.414062 578.667969 468.40625 577.992188 C 468.394531 577.3125 468.320312 576.644531 468.183594 575.980469 C 468.042969 575.316406 467.84375 574.671875 467.582031 574.046875 C 467.316406 573.421875 466.996094 572.828125 466.617188 572.265625 C 466.238281 571.703125 465.808594 571.183594 465.332031 570.703125 C 464.851562 570.222656 464.328125 569.792969 463.765625 569.414062 C 463.203125 569.035156 462.609375 568.714844 461.984375 568.453125 C 461.363281 568.1875 460.71875 567.988281 460.054688 567.847656 C 459.390625 567.710938 458.71875 567.636719 458.039062 567.628906 C 457.363281 567.621094 456.691406 567.675781 456.023438 567.796875 C 455.355469 567.917969 454.707031 568.105469 454.074219 568.351562 C 453.445312 568.597656 452.84375 568.90625 452.269531 569.269531 C 451.699219 569.632812 451.167969 570.046875 450.675781 570.515625 Z M 450.675781 570.5 " fill-opacity="1" fill-rule="nonzero"/></g><g clip-path="url(#2ee35ea5ce)"><path fill="#0026a3" d="M 579.996094 314.667969 L 570.886719 314.667969 C 570.375 214.402344 488.65625 132.996094 388.273438 132.996094 C 287.890625 132.996094 206.171875 214.363281 205.660156 314.667969 L 196.550781 314.667969 C 194.292969 314.667969 192.039062 314.722656 189.785156 314.832031 C 187.53125 314.941406 185.28125 315.109375 183.035156 315.332031 C 180.789062 315.550781 178.546875 315.828125 176.316406 316.160156 C 174.082031 316.488281 171.859375 316.875 169.648438 317.316406 C 167.433594 317.757812 165.230469 318.25 163.042969 318.800781 C 160.855469 319.347656 158.679688 319.949219 156.519531 320.605469 C 154.359375 321.257812 152.21875 321.96875 150.09375 322.726562 C 147.96875 323.488281 145.863281 324.300781 143.777344 325.164062 C 141.691406 326.027344 139.628906 326.941406 137.589844 327.90625 C 135.550781 328.871094 133.535156 329.886719 131.542969 330.949219 C 129.554688 332.011719 127.589844 333.125 125.65625 334.285156 C 123.71875 335.445312 121.8125 336.652344 119.9375 337.90625 C 118.058594 339.160156 116.214844 340.460938 114.402344 341.804688 C 112.589844 343.148438 110.8125 344.535156 109.066406 345.96875 C 107.320312 347.398438 105.613281 348.875 103.941406 350.390625 C 102.269531 351.90625 100.632812 353.460938 99.039062 355.058594 C 97.441406 356.652344 95.886719 358.285156 94.371094 359.960938 C 92.855469 361.632812 91.382812 363.339844 89.949219 365.085938 C 88.519531 366.828125 87.128906 368.609375 85.785156 370.421875 C 84.441406 372.234375 83.144531 374.078125 81.890625 375.953125 C 80.636719 377.832031 79.429688 379.738281 78.265625 381.671875 C 77.105469 383.609375 75.996094 385.570312 74.929688 387.5625 C 73.867188 389.550781 72.851562 391.566406 71.886719 393.609375 C 70.921875 395.648438 70.007812 397.710938 69.144531 399.796875 C 68.28125 401.878906 67.46875 403.984375 66.710938 406.109375 C 65.949219 408.234375 65.242188 410.378906 64.585938 412.539062 C 63.929688 414.699219 63.328125 416.871094 62.78125 419.0625 C 62.230469 421.25 61.738281 423.453125 61.296875 425.664062 C 60.859375 427.878906 60.472656 430.101562 60.140625 432.335938 C 59.808594 434.566406 59.535156 436.804688 59.3125 439.050781 C 59.089844 441.296875 58.925781 443.546875 58.8125 445.800781 C 58.703125 448.054688 58.648438 450.3125 58.648438 452.570312 C 58.648438 454.824219 58.703125 457.082031 58.8125 459.335938 C 58.925781 461.589844 59.089844 463.839844 59.3125 466.085938 C 59.535156 468.332031 59.808594 470.570312 60.140625 472.804688 C 60.472656 475.035156 60.859375 477.257812 61.296875 479.472656 C 61.738281 481.6875 62.230469 483.886719 62.78125 486.078125 C 63.328125 488.265625 63.929688 490.441406 64.585938 492.597656 C 65.242188 494.757812 65.949219 496.902344 66.710938 499.027344 C 67.46875 501.152344 68.28125 503.257812 69.144531 505.339844 C 70.007812 507.425781 70.921875 509.488281 71.886719 511.53125 C 72.851562 513.570312 73.867188 515.585938 74.929688 517.574219 C 75.996094 519.566406 77.105469 521.527344 78.265625 523.464844 C 79.429688 525.402344 80.636719 527.304688 81.890625 529.183594 C 83.144531 531.058594 84.441406 532.902344 85.785156 534.71875 C 87.128906 536.53125 88.519531 538.308594 89.949219 540.054688 C 91.382812 541.796875 92.855469 543.507812 94.371094 545.179688 C 95.886719 546.851562 97.441406 548.484375 99.039062 550.082031 C 100.632812 551.675781 102.269531 553.230469 103.941406 554.746094 C 105.613281 556.261719 107.320312 557.738281 109.066406 559.167969 C 110.8125 560.601562 112.589844 561.988281 114.402344 563.332031 C 116.214844 564.675781 118.058594 565.976562 119.9375 567.230469 C 121.8125 568.484375 123.71875 569.691406 125.65625 570.851562 C 127.589844 572.011719 129.554688 573.125 131.542969 574.1875 C 133.535156 575.25 135.550781 576.265625 137.589844 577.230469 C 139.628906 578.195312 141.691406 579.109375 143.777344 579.972656 C 145.863281 580.835938 147.96875 581.648438 150.09375 582.410156 C 152.21875 583.171875 154.359375 583.878906 156.519531 584.53125 C 158.679688 585.1875 160.855469 585.789062 163.042969 586.339844 C 165.230469 586.886719 167.433594 587.382812 169.648438 587.820312 C 171.859375 588.261719 174.082031 588.648438 176.316406 588.980469 C 178.546875 589.308594 180.789062 589.585938 183.035156 589.808594 C 185.28125 590.027344 187.53125 590.195312 189.785156 590.304688 C 192.039062 590.414062 194.292969 590.472656 196.550781 590.472656 L 310.398438 590.472656 C 311.085938 590.472656 311.769531 590.402344 312.445312 590.269531 C 313.121094 590.136719 313.777344 589.9375 314.414062 589.671875 C 315.050781 589.40625 315.65625 589.085938 316.230469 588.703125 C 316.804688 588.320312 317.332031 587.882812 317.820312 587.394531 C 318.308594 586.910156 318.742188 586.378906 319.125 585.804688 C 319.511719 585.230469 319.832031 584.625 320.097656 583.988281 C 320.359375 583.351562 320.558594 582.695312 320.695312 582.019531 C 320.828125 581.34375 320.894531 580.660156 320.894531 579.972656 C 320.894531 579.28125 320.828125 578.601562 320.695312 577.925781 C 320.558594 577.246094 320.359375 576.589844 320.097656 575.953125 C 319.832031 575.316406 319.511719 574.710938 319.125 574.140625 C 318.742188 573.566406 318.308594 573.035156 317.820312 572.546875 C 317.332031 572.0625 316.804688 571.625 316.230469 571.242188 C 315.65625 570.859375 315.050781 570.535156 314.414062 570.273438 C 313.777344 570.007812 313.121094 569.808594 312.445312 569.675781 C 311.769531 569.539062 311.085938 569.472656 310.398438 569.472656 L 196.550781 569.472656 C 194.636719 569.472656 192.726562 569.425781 190.8125 569.332031 C 188.902344 569.238281 186.996094 569.097656 185.089844 568.910156 C 183.1875 568.722656 181.289062 568.488281 179.398438 568.207031 C 177.503906 567.925781 175.621094 567.601562 173.742188 567.226562 C 171.867188 566.855469 170 566.433594 168.144531 565.96875 C 166.289062 565.503906 164.445312 564.996094 162.613281 564.441406 C 160.785156 563.882812 158.96875 563.285156 157.167969 562.640625 C 155.363281 561.996094 153.582031 561.308594 151.8125 560.574219 C 150.046875 559.84375 148.296875 559.066406 146.566406 558.25 C 144.835938 557.429688 143.128906 556.570312 141.441406 555.667969 C 139.753906 554.765625 138.089844 553.824219 136.449219 552.839844 C 134.808594 551.859375 133.191406 550.835938 131.601562 549.769531 C 130.011719 548.707031 128.445312 547.605469 126.910156 546.46875 C 125.375 545.328125 123.867188 544.152344 122.386719 542.9375 C 120.90625 541.722656 119.460938 540.472656 118.042969 539.1875 C 116.625 537.90625 115.238281 536.585938 113.886719 535.234375 C 112.535156 533.878906 111.214844 532.496094 109.929688 531.078125 C 108.644531 529.660156 107.394531 528.210938 106.183594 526.730469 C 104.96875 525.253906 103.792969 523.746094 102.652344 522.207031 C 101.511719 520.671875 100.410156 519.109375 99.347656 517.515625 C 98.285156 515.925781 97.261719 514.3125 96.277344 512.667969 C 95.292969 511.027344 94.351562 509.363281 93.449219 507.675781 C 92.546875 505.988281 91.6875 504.28125 90.871094 502.550781 C 90.050781 500.824219 89.277344 499.074219 88.542969 497.304688 C 87.8125 495.539062 87.125 493.753906 86.480469 491.953125 C 85.835938 490.152344 85.234375 488.335938 84.679688 486.503906 C 84.125 484.671875 83.613281 482.828125 83.148438 480.972656 C 82.683594 479.117188 82.265625 477.253906 81.890625 475.375 C 81.519531 473.5 81.191406 471.613281 80.910156 469.722656 C 80.628906 467.828125 80.394531 465.929688 80.207031 464.027344 C 80.019531 462.125 79.878906 460.214844 79.785156 458.304688 C 79.691406 456.394531 79.644531 454.480469 79.644531 452.570312 C 79.644531 450.65625 79.691406 448.742188 79.785156 446.832031 C 79.878906 444.921875 80.019531 443.015625 80.207031 441.109375 C 80.394531 439.207031 80.628906 437.308594 80.910156 435.414062 C 81.191406 433.523438 81.519531 431.636719 81.890625 429.761719 C 82.265625 427.886719 82.683594 426.019531 83.148438 424.164062 C 83.613281 422.308594 84.125 420.464844 84.679688 418.632812 C 85.234375 416.800781 85.835938 414.984375 86.480469 413.183594 C 87.125 411.382812 87.8125 409.597656 88.542969 407.832031 C 89.277344 406.0625 90.050781 404.316406 90.871094 402.585938 C 91.6875 400.855469 92.546875 399.148438 93.449219 397.460938 C 94.351562 395.773438 95.292969 394.109375 96.277344 392.46875 C 97.261719 390.828125 98.285156 389.210938 99.347656 387.621094 C 100.410156 386.027344 101.511719 384.464844 102.652344 382.929688 C 103.792969 381.390625 104.96875 379.882812 106.183594 378.40625 C 107.394531 376.925781 108.644531 375.476562 109.929688 374.058594 C 111.214844 372.644531 112.535156 371.257812 113.886719 369.90625 C 115.238281 368.550781 116.625 367.234375 118.042969 365.949219 C 119.460938 364.664062 120.90625 363.414062 122.386719 362.199219 C 123.867188 360.988281 125.375 359.808594 126.910156 358.667969 C 128.445312 357.53125 130.011719 356.429688 131.601562 355.367188 C 133.191406 354.304688 134.808594 353.28125 136.449219 352.296875 C 138.089844 351.3125 139.753906 350.371094 141.441406 349.46875 C 143.128906 348.566406 144.835938 347.707031 146.566406 346.886719 C 148.296875 346.070312 150.046875 345.292969 151.8125 344.5625 C 153.582031 343.832031 155.363281 343.140625 157.167969 342.496094 C 158.96875 341.851562 160.785156 341.253906 162.613281 340.699219 C 164.445312 340.140625 166.289062 339.632812 168.144531 339.167969 C 170 338.703125 171.867188 338.285156 173.742188 337.910156 C 175.621094 337.535156 177.503906 337.210938 179.398438 336.929688 C 181.289062 336.648438 183.1875 336.414062 185.089844 336.226562 C 186.996094 336.039062 188.902344 335.898438 190.8125 335.804688 C 192.726562 335.710938 194.636719 335.664062 196.550781 335.664062 L 216.15625 335.664062 C 216.847656 335.664062 217.527344 335.597656 218.207031 335.460938 C 218.882812 335.328125 219.539062 335.128906 220.175781 334.863281 C 220.8125 334.601562 221.417969 334.277344 221.988281 333.894531 C 222.5625 333.511719 223.09375 333.078125 223.582031 332.589844 C 224.066406 332.101562 224.503906 331.570312 224.886719 330.996094 C 225.269531 330.425781 225.59375 329.820312 225.855469 329.183594 C 226.121094 328.546875 226.320312 327.890625 226.453125 327.214844 C 226.589844 326.539062 226.65625 325.855469 226.65625 325.164062 L 226.65625 315.609375 C 226.65625 312.964844 226.722656 310.324219 226.851562 307.679688 C 226.980469 305.039062 227.175781 302.402344 227.433594 299.769531 C 227.695312 297.136719 228.015625 294.511719 228.40625 291.898438 C 228.792969 289.28125 229.246094 286.675781 229.761719 284.082031 C 230.277344 281.488281 230.855469 278.90625 231.5 276.339844 C 232.140625 273.777344 232.847656 271.226562 233.613281 268.695312 C 234.382812 266.164062 235.210938 263.65625 236.101562 261.164062 C 236.996094 258.671875 237.945312 256.207031 238.957031 253.761719 C 239.96875 251.320312 241.042969 248.902344 242.171875 246.511719 C 243.304688 244.121094 244.492188 241.757812 245.738281 239.425781 C 246.984375 237.09375 248.289062 234.792969 249.648438 232.523438 C 251.007812 230.253906 252.421875 228.019531 253.894531 225.820312 C 255.363281 223.621094 256.886719 221.460938 258.460938 219.335938 C 260.035156 217.210938 261.664062 215.128906 263.339844 213.082031 C 265.019531 211.039062 266.746094 209.035156 268.523438 207.074219 C 270.300781 205.117188 272.121094 203.199219 273.992188 201.332031 C 275.863281 199.460938 277.777344 197.636719 279.738281 195.859375 C 281.699219 194.085938 283.699219 192.359375 285.742188 190.679688 C 287.789062 189 289.875 187.375 291.996094 185.800781 C 294.121094 184.222656 296.285156 182.699219 298.484375 181.230469 C 300.683594 179.761719 302.917969 178.347656 305.183594 176.988281 C 307.453125 175.628906 309.753906 174.324219 312.085938 173.078125 C 314.417969 171.832031 316.78125 170.640625 319.171875 169.511719 C 321.5625 168.378906 323.980469 167.308594 326.425781 166.296875 C 328.867188 165.285156 331.335938 164.332031 333.824219 163.441406 C 336.316406 162.550781 338.828125 161.722656 341.359375 160.953125 C 343.890625 160.1875 346.4375 159.480469 349.003906 158.835938 C 351.570312 158.195312 354.148438 157.617188 356.742188 157.101562 C 359.335938 156.582031 361.941406 156.132812 364.558594 155.742188 C 367.175781 155.355469 369.800781 155.03125 372.429688 154.773438 C 375.0625 154.511719 377.699219 154.320312 380.34375 154.1875 C 382.984375 154.058594 385.628906 153.996094 388.273438 153.996094 C 390.917969 153.996094 393.5625 154.058594 396.203125 154.1875 C 398.84375 154.320312 401.480469 154.511719 404.113281 154.773438 C 406.746094 155.03125 409.371094 155.355469 411.988281 155.742188 C 414.601562 156.132812 417.207031 156.582031 419.800781 157.101562 C 422.398438 157.617188 424.976562 158.195312 427.542969 158.835938 C 430.109375 159.480469 432.65625 160.1875 435.1875 160.953125 C 437.71875 161.722656 440.230469 162.550781 442.71875 163.441406 C 445.210938 164.332031 447.675781 165.285156 450.121094 166.296875 C 452.5625 167.308594 454.980469 168.378906 457.371094 169.511719 C 459.765625 170.640625 462.125 171.832031 464.457031 173.078125 C 466.789062 174.324219 469.089844 175.628906 471.359375 176.988281 C 473.628906 178.347656 475.863281 179.761719 478.0625 181.230469 C 480.261719 182.699219 482.421875 184.222656 484.546875 185.800781 C 486.671875 187.375 488.757812 189 490.800781 190.679688 C 492.847656 192.359375 494.847656 194.085938 496.808594 195.859375 C 498.769531 197.636719 500.683594 199.460938 502.554688 201.332031 C 504.421875 203.199219 506.246094 205.117188 508.023438 207.074219 C 509.800781 209.035156 511.527344 211.039062 513.203125 213.082031 C 514.882812 215.128906 516.507812 217.210938 518.085938 219.335938 C 519.660156 221.460938 521.183594 223.621094 522.652344 225.820312 C 524.121094 228.019531 525.535156 230.253906 526.894531 232.523438 C 528.253906 234.792969 529.558594 237.09375 530.804688 239.425781 C 532.050781 241.757812 533.242188 244.121094 534.371094 246.511719 C 535.503906 248.902344 536.574219 251.320312 537.585938 253.761719 C 538.597656 256.207031 539.550781 258.671875 540.441406 261.164062 C 541.332031 263.65625 542.164062 266.164062 542.929688 268.695312 C 543.699219 271.226562 544.402344 273.777344 545.046875 276.339844 C 545.6875 278.90625 546.269531 281.488281 546.785156 284.082031 C 547.300781 286.675781 547.753906 289.28125 548.140625 291.898438 C 548.527344 294.511719 548.851562 297.136719 549.109375 299.769531 C 549.371094 302.402344 549.566406 305.039062 549.695312 307.679688 C 549.824219 310.324219 549.890625 312.964844 549.890625 315.609375 L 549.890625 325.164062 C 549.890625 325.855469 549.957031 326.539062 550.089844 327.214844 C 550.226562 327.890625 550.425781 328.546875 550.6875 329.183594 C 550.953125 329.820312 551.277344 330.425781 551.660156 330.996094 C 552.042969 331.570312 552.476562 332.101562 552.964844 332.589844 C 553.453125 333.078125 553.980469 333.511719 554.554688 333.894531 C 555.128906 334.277344 555.734375 334.601562 556.371094 334.863281 C 557.007812 335.128906 557.664062 335.328125 558.339844 335.460938 C 559.015625 335.597656 559.699219 335.664062 560.386719 335.664062 L 579.996094 335.664062 C 581.90625 335.664062 583.820312 335.710938 585.730469 335.804688 C 587.640625 335.898438 589.550781 336.039062 591.453125 336.226562 C 593.359375 336.414062 595.253906 336.648438 597.148438 336.929688 C 599.039062 337.210938 600.925781 337.535156 602.800781 337.910156 C 604.679688 338.285156 606.542969 338.703125 608.398438 339.167969 C 610.257812 339.632812 612.101562 340.140625 613.929688 340.699219 C 615.761719 341.253906 617.578125 341.851562 619.378906 342.496094 C 621.179688 343.140625 622.964844 343.832031 624.730469 344.5625 C 626.5 345.292969 628.25 346.070312 629.976562 346.886719 C 631.707031 347.707031 633.417969 348.566406 635.101562 349.46875 C 636.789062 350.371094 638.453125 351.3125 640.097656 352.296875 C 641.738281 353.28125 643.351562 354.304688 644.945312 355.367188 C 646.535156 356.429688 648.097656 357.53125 649.636719 358.667969 C 651.171875 359.808594 652.679688 360.984375 654.160156 362.199219 C 655.636719 363.414062 657.085938 364.664062 658.503906 365.949219 C 659.921875 367.234375 661.304688 368.550781 662.660156 369.90625 C 664.011719 371.257812 665.332031 372.644531 666.617188 374.058594 C 667.902344 375.476562 669.148438 376.925781 670.363281 378.40625 C 671.578125 379.882812 672.753906 381.390625 673.894531 382.929688 C 675.035156 384.464844 676.132812 386.027344 677.199219 387.621094 C 678.261719 389.210938 679.285156 390.828125 680.265625 392.46875 C 681.25 394.109375 682.195312 395.773438 683.09375 397.460938 C 683.996094 399.148438 684.859375 400.855469 685.675781 402.585938 C 686.492188 404.316406 687.269531 406.0625 688 407.832031 C 688.734375 409.597656 689.421875 411.382812 690.066406 413.183594 C 690.710938 414.984375 691.308594 416.800781 691.867188 418.632812 C 692.421875 420.464844 692.929688 422.308594 693.394531 424.164062 C 693.859375 426.019531 694.28125 427.886719 694.652344 429.761719 C 695.027344 431.636719 695.355469 433.523438 695.632812 435.414062 C 695.914062 437.308594 696.148438 439.207031 696.335938 441.109375 C 696.523438 443.015625 696.664062 444.921875 696.757812 446.832031 C 696.851562 448.742188 696.898438 450.65625 696.898438 452.570312 C 696.898438 454.480469 696.851562 456.394531 696.757812 458.304688 C 696.664062 460.214844 696.523438 462.125 696.335938 464.027344 C 696.148438 465.929688 695.914062 467.828125 695.632812 469.722656 C 695.355469 471.613281 695.027344 473.5 694.652344 475.375 C 694.28125 477.253906 693.859375 479.117188 693.394531 480.972656 C 692.929688 482.828125 692.421875 484.671875 691.867188 486.503906 C 691.308594 488.335938 690.710938 490.152344 690.066406 491.953125 C 689.421875 493.753906 688.734375 495.539062 688 497.304688 C 687.269531 499.074219 686.492188 500.820312 685.675781 502.550781 C 684.859375 504.28125 683.996094 505.988281 683.09375 507.675781 C 682.195312 509.363281 681.25 511.027344 680.265625 512.667969 C 679.285156 514.3125 678.261719 515.925781 677.199219 517.515625 C 676.132812 519.109375 675.035156 520.671875 673.894531 522.207031 C 672.753906 523.746094 671.578125 525.253906 670.363281 526.730469 C 669.148438 528.210938 667.902344 529.660156 666.617188 531.078125 C 665.332031 532.496094 664.011719 533.878906 662.660156 535.234375 C 661.304688 536.585938 659.921875 537.90625 658.503906 539.1875 C 657.085938 540.472656 655.636719 541.722656 654.160156 542.9375 C 652.679688 544.152344 651.171875 545.328125 649.636719 546.46875 C 648.097656 547.605469 646.535156 548.707031 644.945312 549.769531 C 643.351562 550.835938 641.738281 551.859375 640.097656 552.839844 C 638.453125 553.824219 636.789062 554.765625 635.101562 555.667969 C 633.417969 556.570312 631.707031 557.429688 629.976562 558.25 C 628.25 559.066406 626.5 559.84375 624.730469 560.574219 C 622.964844 561.308594 621.179688 561.996094 619.378906 562.640625 C 617.578125 563.285156 615.761719 563.882812 613.929688 564.441406 C 612.101562 564.996094 610.257812 565.503906 608.398438 565.96875 C 606.542969 566.433594 604.679688 566.855469 602.800781 567.226562 C 600.925781 567.601562 599.039062 567.925781 597.148438 568.207031 C 595.253906 568.488281 593.359375 568.722656 591.453125 568.910156 C 589.550781 569.097656 587.640625 569.238281 585.730469 569.332031 C 583.820312 569.425781 581.90625 569.472656 579.996094 569.472656 L 462.472656 569.472656 C 461.785156 569.472656 461.101562 569.539062 460.425781 569.675781 C 459.75 569.808594 459.09375 570.007812 458.457031 570.273438 C 457.820312 570.535156 457.214844 570.859375 456.640625 571.242188 C 456.066406 571.625 455.535156 572.0625 455.050781 572.546875 C 454.5625 573.035156 454.125 573.566406 453.742188 574.140625 C 453.359375 574.710938 453.039062 575.316406 452.773438 575.953125 C 452.511719 576.589844 452.3125 577.246094 452.175781 577.925781 C 452.042969 578.601562 451.972656 579.28125 451.972656 579.972656 C 451.972656 580.660156 452.042969 581.34375 452.175781 582.019531 C 452.3125 582.695312 452.511719 583.351562 452.773438 583.988281 C 453.039062 584.625 453.359375 585.230469 453.742188 585.804688 C 454.125 586.378906 454.5625 586.910156 455.050781 587.394531 C 455.535156 587.882812 456.066406 588.320312 456.640625 588.703125 C 457.214844 589.085938 457.820312 589.40625 458.457031 589.671875 C 459.09375 589.9375 459.75 590.136719 460.425781 590.269531 C 461.101562 590.402344 461.785156 590.472656 462.472656 590.472656 L 579.996094 590.472656 C 582.25 590.472656 584.507812 590.414062 586.761719 590.304688 C 589.015625 590.195312 591.265625 590.027344 593.511719 589.808594 C 595.757812 589.585938 597.996094 589.308594 600.230469 588.976562 C 602.460938 588.648438 604.683594 588.261719 606.898438 587.820312 C 609.113281 587.382812 611.3125 586.886719 613.503906 586.339844 C 615.691406 585.789062 617.867188 585.1875 620.027344 584.53125 C 622.1875 583.878906 624.328125 583.171875 626.453125 582.410156 C 628.578125 581.648438 630.683594 580.835938 632.769531 579.972656 C 634.851562 579.109375 636.914062 578.195312 638.957031 577.230469 C 640.996094 576.265625 643.011719 575.25 645 574.1875 C 646.992188 573.125 648.953125 572.011719 650.890625 570.851562 C 652.828125 569.691406 654.734375 568.484375 656.609375 567.230469 C 658.484375 565.976562 660.332031 564.675781 662.144531 563.332031 C 663.957031 561.988281 665.734375 560.601562 667.480469 559.167969 C 669.222656 557.738281 670.933594 556.261719 672.605469 554.746094 C 674.277344 553.230469 675.910156 551.675781 677.507812 550.082031 C 679.101562 548.484375 680.65625 546.851562 682.171875 545.179688 C 683.691406 543.507812 685.164062 541.796875 686.59375 540.054688 C 688.027344 538.308594 689.414062 536.53125 690.757812 534.71875 C 692.105469 532.90625 693.402344 531.058594 694.65625 529.183594 C 695.910156 527.304688 697.117188 525.402344 698.277344 523.464844 C 699.4375 521.527344 700.550781 519.566406 701.613281 517.574219 C 702.679688 515.585938 703.691406 513.570312 704.65625 511.53125 C 705.621094 509.488281 706.535156 507.425781 707.398438 505.339844 C 708.265625 503.257812 709.074219 501.152344 709.835938 499.027344 C 710.597656 496.902344 711.304688 494.757812 711.960938 492.597656 C 712.613281 490.441406 713.214844 488.265625 713.765625 486.078125 C 714.3125 483.886719 714.808594 481.6875 715.246094 479.472656 C 715.6875 477.257812 716.074219 475.035156 716.40625 472.804688 C 716.734375 470.570312 717.011719 468.332031 717.234375 466.085938 C 717.453125 463.839844 717.621094 461.589844 717.730469 459.335938 C 717.84375 457.082031 717.898438 454.824219 717.898438 452.570312 C 717.898438 450.3125 717.84375 448.054688 717.730469 445.800781 C 717.621094 443.546875 717.453125 441.296875 717.234375 439.050781 C 717.011719 436.804688 716.734375 434.566406 716.40625 432.335938 C 716.074219 430.101562 715.6875 427.878906 715.246094 425.664062 C 714.808594 423.453125 714.3125 421.25 713.765625 419.0625 C 713.214844 416.871094 712.613281 414.699219 711.960938 412.539062 C 711.304688 410.378906 710.597656 408.234375 709.835938 406.109375 C 709.074219 403.984375 708.265625 401.878906 707.398438 399.796875 C 706.535156 397.710938 705.621094 395.648438 704.65625 393.609375 C 703.691406 391.566406 702.679688 389.550781 701.613281 387.5625 C 700.550781 385.570312 699.4375 383.609375 698.277344 381.671875 C 697.117188 379.738281 695.910156 377.832031 694.65625 375.953125 C 693.402344 374.078125 692.105469 372.234375 690.757812 370.421875 C 689.414062 368.609375 688.027344 366.828125 686.59375 365.085938 C 685.164062 363.339844 683.691406 361.632812 682.171875 359.960938 C 680.660156 358.285156 679.101562 356.652344 677.507812 355.058594 C 675.910156 353.460938 674.277344 351.90625 672.605469 350.390625 C 670.933594 348.875 669.222656 347.398438 667.480469 345.96875 C 665.734375 344.535156 663.957031 343.148438 662.144531 341.804688 C 660.332031 340.460938 658.484375 339.160156 656.609375 337.90625 C 654.734375 336.652344 652.828125 335.445312 650.890625 334.285156 C 648.953125 333.125 646.992188 332.011719 645 330.949219 C 643.011719 329.886719 640.996094 328.871094 638.957031 327.90625 C 636.914062 326.941406 634.851562 326.027344 632.769531 325.164062 C 630.683594 324.300781 628.578125 323.488281 626.453125 322.726562 C 624.328125 321.96875 622.1875 321.257812 620.027344 320.605469 C 617.867188 319.949219 615.691406 319.347656 613.503906 318.800781 C 611.3125 318.25 609.113281 317.757812 606.898438 317.316406 C 604.683594 316.875 602.460938 316.488281 600.230469 316.160156 C 597.996094 315.828125 595.757812 315.550781 593.511719 315.332031 C 591.265625 315.109375 589.015625 314.941406 586.761719 314.832031 C 584.507812 314.722656 582.25 314.667969 579.996094 314.667969 Z M 579.996094 314.667969 " fill-opacity="1" fill-rule="nonzero"/></g><g clip-path="url(#3f1fac2d47)"><path fill="#0026a3" d="M 450.675781 631.980469 L 398.773438 683.882812 L 398.773438 401.503906 C 398.773438 400.816406 398.703125 400.132812 398.570312 399.457031 C 398.433594 398.78125 398.234375 398.125 397.972656 397.488281 C 397.707031 396.851562 397.386719 396.246094 397.003906 395.671875 C 396.617188 395.097656 396.183594 394.570312 395.695312 394.082031 C 395.210938 393.59375 394.679688 393.160156 394.105469 392.773438 C 393.53125 392.390625 392.925781 392.070312 392.289062 391.804688 C 391.652344 391.542969 390.996094 391.34375 390.320312 391.207031 C 389.644531 391.074219 388.960938 391.007812 388.273438 391.007812 C 387.582031 391.007812 386.902344 391.074219 386.222656 391.207031 C 385.546875 391.34375 384.890625 391.542969 384.253906 391.804688 C 383.617188 392.070312 383.011719 392.390625 382.441406 392.773438 C 381.867188 393.160156 381.335938 393.59375 380.847656 394.082031 C 380.363281 394.570312 379.925781 395.097656 379.542969 395.671875 C 379.160156 396.246094 378.835938 396.851562 378.574219 397.488281 C 378.308594 398.125 378.109375 398.78125 377.976562 399.457031 C 377.839844 400.132812 377.773438 400.816406 377.773438 401.503906 L 377.773438 683.882812 L 325.871094 631.980469 C 325.382812 631.492188 324.851562 631.058594 324.277344 630.675781 C 323.703125 630.292969 323.101562 629.96875 322.460938 629.707031 C 321.824219 629.441406 321.167969 629.242188 320.492188 629.109375 C 319.816406 628.976562 319.132812 628.910156 318.445312 628.910156 C 317.753906 628.910156 317.070312 628.976562 316.394531 629.113281 C 315.71875 629.246094 315.0625 629.445312 314.425781 629.710938 C 313.789062 629.972656 313.183594 630.296875 312.613281 630.679688 C 312.039062 631.0625 311.507812 631.5 311.019531 631.988281 C 310.535156 632.476562 310.097656 633.003906 309.714844 633.578125 C 309.332031 634.152344 309.007812 634.757812 308.746094 635.394531 C 308.484375 636.03125 308.285156 636.6875 308.148438 637.363281 C 308.015625 638.042969 307.949219 638.722656 307.949219 639.414062 C 307.949219 640.101562 308.015625 640.785156 308.152344 641.460938 C 308.285156 642.136719 308.484375 642.792969 308.75 643.429688 C 309.015625 644.066406 309.335938 644.671875 309.722656 645.246094 C 310.105469 645.820312 310.539062 646.347656 311.027344 646.835938 L 380.84375 716.667969 C 381.332031 717.15625 381.863281 717.589844 382.4375 717.976562 C 383.007812 718.359375 383.613281 718.683594 384.253906 718.945312 C 384.890625 719.210938 385.546875 719.410156 386.222656 719.542969 C 386.898438 719.679688 387.582031 719.746094 388.273438 719.746094 C 388.960938 719.746094 389.644531 719.679688 390.324219 719.542969 C 391 719.410156 391.65625 719.210938 392.292969 718.945312 C 392.929688 718.683594 393.535156 718.359375 394.109375 717.976562 C 394.683594 717.589844 395.214844 717.15625 395.699219 716.667969 L 465.519531 646.835938 C 465.984375 646.34375 466.402344 645.8125 466.765625 645.242188 C 467.128906 644.667969 467.433594 644.066406 467.679688 643.4375 C 467.929688 642.804688 468.113281 642.15625 468.234375 641.488281 C 468.355469 640.820312 468.414062 640.148438 468.40625 639.472656 C 468.394531 638.792969 468.320312 638.121094 468.183594 637.457031 C 468.042969 636.792969 467.84375 636.152344 467.582031 635.527344 C 467.316406 634.902344 466.996094 634.308594 466.617188 633.746094 C 466.238281 633.183594 465.808594 632.660156 465.332031 632.183594 C 464.851562 631.703125 464.328125 631.273438 463.765625 630.894531 C 463.203125 630.515625 462.609375 630.195312 461.984375 629.933594 C 461.363281 629.667969 460.71875 629.46875 460.054688 629.328125 C 459.390625 629.191406 458.71875 629.117188 458.039062 629.109375 C 457.363281 629.097656 456.691406 629.15625 456.023438 629.277344 C 455.355469 629.398438 454.707031 629.582031 454.074219 629.832031 C 453.445312 630.078125 452.84375 630.382812 452.269531 630.746094 C 451.699219 631.113281 451.167969 631.527344 450.675781 631.992188 Z M 450.675781 631.980469 " fill-opacity="1" fill-rule="nonzero"/></g><g clip-path="url(#9038f49e60)"><g clip-path="url(#2fb45620d7)"><path fill="#ff7ae3" d="M 412.042969 476.316406 L 514.441406 476.316406 L 514.441406 540.253906 L 412.042969 540.253906 Z M 412.042969 476.316406 " fill-opacity="1" fill-rule="nonzero"/></g></g><g clip-path="url(#fcb705e945)"><g clip-path="url(#f128303ebc)"><path fill="#ff7ae3" d="M 252.179688 475.347656 L 354.582031 475.347656 L 354.582031 539.285156 L 252.179688 539.285156 Z M 252.179688 475.347656 " fill-opacity="1" fill-rule="nonzero"/></g></g></svg>