<svg xmlns="http://www.w3.org/2000/svg"
    xmlns:xlink="http://www.w3.org/1999/xlink" width="1030" zoomAndPan="magnify" viewBox="0 0 772.5 772.499976" height="1030" preserveAspectRatio="xMidYMid meet" version="1.0">
    <defs>
        <clipPath id="3cdd9dfd12">
            <path d="M 78.753906 142 L 679.554688 142 L 679.554688 557 L 78.753906 557 Z M 78.753906 142 " clip-rule="nonzero"/>
        </clipPath>
        <clipPath id="e2a257f138">
            <path d="M 252.179688 271.3125 L 498 271.3125 L 498 496.90625 L 252.179688 496.90625 Z M 252.179688 271.3125 " clip-rule="nonzero"/>
        </clipPath>
        <clipPath id="b3c67dcd39">
            <path d="M 290.40625 271.3125 L 459.359375 271.3125 C 480.46875 271.3125 497.582031 288.425781 497.582031 309.535156 L 497.582031 458.679688 C 497.582031 479.792969 480.46875 496.90625 459.359375 496.90625 L 290.40625 496.90625 C 269.292969 496.90625 252.179688 479.792969 252.179688 458.679688 L 252.179688 309.535156 C 252.179688 288.425781 269.292969 271.3125 290.40625 271.3125 Z M 290.40625 271.3125 " clip-rule="nonzero"/>
        </clipPath>
        <clipPath id="d180422c20">
            <path d="M 322.628906 448.472656 L 438.910156 448.472656 L 438.910156 539 L 322.628906 539 Z M 322.628906 448.472656 " clip-rule="nonzero"/>
        </clipPath>
        <clipPath id="fb2f7d2d18">
            <path d="M 325 448.472656 L 438.910156 448.472656 L 438.910156 629.683594 L 325 629.683594 Z M 325 448.472656 " clip-rule="nonzero"/>
        </clipPath>
        <clipPath id="90c0d15717">
            <path d="M 322.628906 436.625 L 438.910156 436.625 L 438.910156 522.867188 L 322.628906 522.867188 Z M 322.628906 436.625 " clip-rule="nonzero"/>
        </clipPath>
        <clipPath id="f8ffe5fb0b">
            <path d="M 325 440 L 438.910156 440 L 438.910156 522.867188 L 325 522.867188 Z M 325 440 " clip-rule="nonzero"/>
        </clipPath>
        <clipPath id="7606295c6f">
            <path d="M 412.042969 476.316406 L 514.691406 476.316406 L 514.691406 540.253906 L 412.042969 540.253906 Z M 412.042969 476.316406 " clip-rule="nonzero"/>
        </clipPath>
        <clipPath id="7cdb3aec32">
            <path d="M 444.011719 476.316406 L 482.484375 476.316406 C 500.140625 476.316406 514.453125 490.628906 514.453125 508.285156 C 514.453125 525.941406 500.140625 540.253906 482.484375 540.253906 L 444.011719 540.253906 C 426.355469 540.253906 412.042969 525.941406 412.042969 508.285156 C 412.042969 490.628906 426.355469 476.316406 444.011719 476.316406 Z M 444.011719 476.316406 " clip-rule="nonzero"/>
        </clipPath>
        <clipPath id="773c1a3c4d">
            <path d="M 252.179688 475.347656 L 354.832031 475.347656 L 354.832031 539.285156 L 252.179688 539.285156 Z M 252.179688 475.347656 " clip-rule="nonzero"/>
        </clipPath>
        <clipPath id="ea9cca1ece">
            <path d="M 284.148438 475.347656 L 322.625 475.347656 C 340.28125 475.347656 354.59375 489.660156 354.59375 507.316406 C 354.59375 524.972656 340.28125 539.285156 322.625 539.285156 L 284.148438 539.285156 C 266.492188 539.285156 252.179688 524.972656 252.179688 507.316406 C 252.179688 489.660156 266.492188 475.347656 284.148438 475.347656 Z M 284.148438 475.347656 " clip-rule="nonzero"/>
        </clipPath>
    </defs>
    <g clip-path="url(#3cdd9dfd12)">
        <path fill="#ff7ae3" d="M 385.648438 142.578125 C 488.742188 142.578125 570.0625 228.28125 567 328.351562 L 577.488281 328.351562 C 640.628906 328.351562 691.8125 379.539062 691.8125 442.675781 C 691.8125 505.8125 640.628906 557 577.488281 557 L 191.648438 557 C 128.511719 557 77.324219 505.8125 77.324219 442.675781 C 77.324219 379.539062 128.511719 328.351562 191.648438 328.351562 L 202.726562 328.351562 C 200.574219 227.167969 283.019531 142.578125 385.648438 142.578125 Z M 397.960938 290.175781 C 390.132812 283.914062 379.007812 283.914062 371.179688 290.175781 L 299.726562 347.339844 C 290.480469 354.734375 288.984375 368.226562 296.378906 377.46875 C 303.773438 386.714844 317.265625 388.210938 326.507812 380.816406 L 363.132812 351.515625 L 363.132812 478.402344 C 363.132812 490.238281 372.730469 499.835938 384.570312 499.835938 C 396.40625 499.835938 406.003906 490.238281 406.003906 478.402344 L 406.003906 351.515625 L 442.632812 380.816406 C 451.875 388.210938 465.363281 386.714844 472.761719 377.46875 C 480.15625 368.226562 478.65625 354.734375 469.410156 347.339844 Z M 397.960938 290.175781 " fill-opacity="1" fill-rule="evenodd"/>
    </g>
    <g clip-path="url(#e2a257f138)">
        <g clip-path="url(#b3c67dcd39)">
            <path fill="#ff7ae3" d="M 252.179688 271.3125 L 497.164062 271.3125 L 497.164062 496.90625 L 252.179688 496.90625 Z M 252.179688 271.3125 " fill-opacity="1" fill-rule="nonzero"/>
        </g>
    </g>
    <g clip-path="url(#d180422c20)">
        <path fill="#0026a3" d="M 518.773438 342.269531 L 512.300781 342.269531 C 511.9375 271.039062 453.878906 213.207031 382.566406 213.207031 C 311.25 213.207031 253.195312 271.011719 252.832031 342.269531 L 246.359375 342.269531 C 244.757812 342.269531 243.152344 342.308594 241.554688 342.386719 C 239.953125 342.46875 238.351562 342.585938 236.757812 342.742188 C 235.160156 342.898438 233.570312 343.09375 231.984375 343.332031 C 230.398438 343.566406 228.820312 343.839844 227.246094 344.152344 C 225.675781 344.464844 224.109375 344.816406 222.554688 345.207031 C 221 345.597656 219.453125 346.023438 217.921875 346.488281 C 216.386719 346.953125 214.863281 347.457031 213.355469 347.996094 C 211.84375 348.539062 210.351562 349.113281 208.867188 349.726562 C 207.386719 350.339844 205.921875 350.992188 204.472656 351.675781 C 203.023438 352.363281 201.589844 353.082031 200.175781 353.839844 C 198.761719 354.59375 197.367188 355.382812 195.992188 356.207031 C 194.617188 357.03125 193.265625 357.890625 191.929688 358.78125 C 190.597656 359.671875 189.285156 360.59375 188 361.550781 C 186.710938 362.503906 185.449219 363.492188 184.207031 364.507812 C 182.96875 365.527344 181.753906 366.574219 180.566406 367.648438 C 179.378906 368.726562 178.21875 369.832031 177.085938 370.964844 C 175.949219 372.097656 174.84375 373.261719 173.769531 374.449219 C 172.691406 375.636719 171.644531 376.847656 170.628906 378.089844 C 169.609375 379.328125 168.625 380.59375 167.667969 381.878906 C 166.714844 383.167969 165.792969 384.476562 164.902344 385.8125 C 164.011719 387.144531 163.152344 388.5 162.328125 389.875 C 161.503906 391.25 160.714844 392.644531 159.957031 394.058594 C 159.203125 395.472656 158.480469 396.902344 157.796875 398.351562 C 157.109375 399.800781 156.460938 401.269531 155.847656 402.75 C 155.234375 404.230469 154.65625 405.726562 154.117188 407.234375 C 153.578125 408.746094 153.074219 410.265625 152.609375 411.800781 C 152.144531 413.335938 151.714844 414.878906 151.324219 416.4375 C 150.9375 417.992188 150.585938 419.554688 150.273438 421.128906 C 149.960938 422.699219 149.683594 424.28125 149.449219 425.867188 C 149.214844 427.453125 149.019531 429.042969 148.859375 430.636719 C 148.703125 432.234375 148.585938 433.832031 148.507812 435.433594 C 148.429688 437.035156 148.390625 438.636719 148.390625 440.242188 C 148.390625 441.84375 148.429688 443.445312 148.507812 445.046875 C 148.585938 446.648438 148.703125 448.246094 148.859375 449.84375 C 149.019531 451.4375 149.214844 453.03125 149.449219 454.617188 C 149.683594 456.203125 149.960938 457.78125 150.273438 459.355469 C 150.585938 460.925781 150.9375 462.492188 151.324219 464.046875 C 151.714844 465.601562 152.144531 467.144531 152.609375 468.679688 C 153.074219 470.214844 153.578125 471.738281 154.117188 473.246094 C 154.65625 474.753906 155.234375 476.25 155.847656 477.730469 C 156.460938 479.214844 157.109375 480.679688 157.796875 482.128906 C 158.480469 483.578125 159.203125 485.007812 159.957031 486.421875 C 160.714844 487.835938 161.503906 489.230469 162.328125 490.609375 C 163.152344 491.984375 164.011719 493.335938 164.902344 494.671875 C 165.792969 496.003906 166.714844 497.3125 167.667969 498.601562 C 168.625 499.890625 169.609375 501.152344 170.628906 502.390625 C 171.644531 503.632812 172.691406 504.84375 173.769531 506.035156 C 174.84375 507.222656 175.949219 508.382812 177.085938 509.515625 C 178.21875 510.648438 179.378906 511.753906 180.566406 512.832031 C 181.753906 513.910156 182.96875 514.957031 184.207031 515.972656 C 185.449219 516.988281 186.710938 517.976562 188 518.929688 C 189.285156 519.886719 190.597656 520.808594 191.929688 521.699219 C 193.265625 522.589844 194.617188 523.449219 195.992188 524.273438 C 197.367188 525.097656 198.761719 525.886719 200.175781 526.644531 C 201.589844 527.398438 203.023438 528.121094 204.472656 528.804688 C 205.921875 529.492188 207.386719 530.140625 208.867188 530.753906 C 210.351562 531.367188 211.84375 531.945312 213.355469 532.484375 C 214.863281 533.023438 216.386719 533.527344 217.921875 533.992188 C 219.453125 534.457031 221 534.886719 222.554688 535.273438 C 224.109375 535.664062 225.675781 536.015625 227.246094 536.328125 C 228.820312 536.640625 230.398438 536.914062 231.984375 537.152344 C 233.570312 537.386719 235.160156 537.582031 236.757812 537.738281 C 238.351562 537.898438 239.953125 538.015625 241.554688 538.09375 C 243.152344 538.171875 244.757812 538.210938 246.359375 538.210938 L 327.242188 538.210938 C 327.730469 538.210938 328.214844 538.164062 328.695312 538.066406 C 329.175781 537.972656 329.640625 537.832031 330.09375 537.644531 C 330.546875 537.457031 330.976562 537.226562 331.382812 536.953125 C 331.792969 536.683594 332.167969 536.371094 332.515625 536.027344 C 332.859375 535.679688 333.171875 535.304688 333.441406 534.894531 C 333.714844 534.488281 333.945312 534.058594 334.132812 533.605469 C 334.320312 533.15625 334.460938 532.6875 334.554688 532.207031 C 334.652344 531.726562 334.699219 531.242188 334.699219 530.753906 C 334.699219 530.261719 334.652344 529.777344 334.554688 529.296875 C 334.460938 528.816406 334.320312 528.351562 334.132812 527.898438 C 333.945312 527.445312 333.714844 527.015625 333.441406 526.609375 C 333.171875 526.203125 332.859375 525.824219 332.515625 525.476562 C 332.167969 525.132812 331.792969 524.824219 331.382812 524.550781 C 330.976562 524.277344 330.546875 524.050781 330.09375 523.863281 C 329.640625 523.675781 329.175781 523.53125 328.695312 523.4375 C 328.214844 523.339844 327.730469 523.292969 327.242188 523.292969 L 246.359375 523.292969 C 245 523.292969 243.640625 523.261719 242.285156 523.195312 C 240.925781 523.128906 239.570312 523.027344 238.21875 522.894531 C 236.867188 522.761719 235.519531 522.59375 234.171875 522.394531 C 232.828125 522.195312 231.492188 521.964844 230.15625 521.699219 C 228.824219 521.433594 227.5 521.136719 226.179688 520.804688 C 224.859375 520.472656 223.550781 520.113281 222.25 519.71875 C 220.949219 519.324219 219.660156 518.898438 218.378906 518.4375 C 217.101562 517.980469 215.832031 517.492188 214.578125 516.972656 C 213.320312 516.453125 212.078125 515.902344 210.851562 515.320312 C 209.621094 514.738281 208.40625 514.128906 207.210938 513.488281 C 206.011719 512.847656 204.828125 512.175781 203.664062 511.476562 C 202.496094 510.777344 201.347656 510.050781 200.21875 509.296875 C 199.089844 508.542969 197.976562 507.757812 196.886719 506.949219 C 195.792969 506.140625 194.722656 505.304688 193.671875 504.441406 C 192.621094 503.578125 191.59375 502.691406 190.585938 501.777344 C 189.578125 500.867188 188.59375 499.929688 187.632812 498.96875 C 186.671875 498.007812 185.734375 497.023438 184.820312 496.015625 C 183.910156 495.007812 183.019531 493.980469 182.160156 492.929688 C 181.296875 491.878906 180.460938 490.808594 179.652344 489.714844 C 178.839844 488.625 178.058594 487.511719 177.304688 486.382812 C 176.550781 485.253906 175.820312 484.105469 175.125 482.9375 C 174.425781 481.773438 173.753906 480.589844 173.113281 479.390625 C 172.472656 478.191406 171.863281 476.980469 171.28125 475.75 C 170.699219 474.523438 170.148438 473.28125 169.628906 472.023438 C 169.109375 470.769531 168.621094 469.5 168.160156 468.21875 C 167.703125 466.941406 167.277344 465.652344 166.882812 464.351562 C 166.488281 463.050781 166.125 461.738281 165.796875 460.421875 C 165.464844 459.101562 165.167969 457.777344 164.902344 456.445312 C 164.636719 455.109375 164.40625 453.773438 164.207031 452.425781 C 164.007812 451.082031 163.839844 449.734375 163.707031 448.382812 C 163.574219 447.027344 163.472656 445.671875 163.40625 444.316406 C 163.339844 442.957031 163.308594 441.601562 163.308594 440.242188 C 163.308594 438.882812 163.339844 437.523438 163.40625 436.164062 C 163.472656 434.808594 163.574219 433.453125 163.707031 432.101562 C 163.839844 430.746094 164.007812 429.398438 164.207031 428.054688 C 164.40625 426.710938 164.636719 425.371094 164.902344 424.039062 C 165.167969 422.703125 165.464844 421.378906 165.796875 420.058594 C 166.125 418.742188 166.488281 417.433594 166.882812 416.132812 C 167.277344 414.832031 167.703125 413.539062 168.160156 412.261719 C 168.621094 410.980469 169.109375 409.714844 169.628906 408.457031 C 170.148438 407.203125 170.699219 405.960938 171.28125 404.730469 C 171.863281 403.503906 172.472656 402.289062 173.113281 401.089844 C 173.753906 399.890625 174.425781 398.707031 175.125 397.542969 C 175.820312 396.378906 176.550781 395.230469 177.304688 394.097656 C 178.058594 392.96875 178.839844 391.859375 179.652344 390.765625 C 180.460938 389.675781 181.296875 388.601562 182.160156 387.550781 C 183.019531 386.5 183.910156 385.472656 184.820312 384.464844 C 185.734375 383.457031 186.671875 382.472656 187.632812 381.511719 C 188.59375 380.550781 189.578125 379.617188 190.585938 378.703125 C 191.59375 377.789062 192.621094 376.902344 193.671875 376.039062 C 194.722656 375.175781 195.792969 374.339844 196.886719 373.53125 C 197.976562 372.722656 199.089844 371.941406 200.21875 371.183594 C 201.347656 370.429688 202.496094 369.703125 203.664062 369.003906 C 204.828125 368.304688 206.011719 367.636719 207.210938 366.996094 C 208.40625 366.355469 209.621094 365.742188 210.851562 365.160156 C 212.078125 364.582031 213.320312 364.03125 214.578125 363.511719 C 215.832031 362.988281 217.101562 362.5 218.378906 362.042969 C 219.660156 361.585938 220.949219 361.160156 222.25 360.765625 C 223.550781 360.371094 224.859375 360.007812 226.179688 359.675781 C 227.5 359.347656 228.824219 359.046875 230.15625 358.785156 C 231.492188 358.519531 232.828125 358.285156 234.171875 358.085938 C 235.519531 357.886719 236.867188 357.722656 238.21875 357.585938 C 239.570312 357.453125 240.925781 357.355469 242.285156 357.289062 C 243.640625 357.222656 245 357.1875 246.359375 357.1875 L 260.289062 357.1875 C 260.777344 357.1875 261.265625 357.140625 261.746094 357.042969 C 262.226562 356.949219 262.691406 356.808594 263.144531 356.621094 C 263.597656 356.433594 264.027344 356.203125 264.433594 355.929688 C 264.839844 355.660156 265.21875 355.347656 265.5625 355.003906 C 265.910156 354.65625 266.21875 354.28125 266.492188 353.871094 C 266.761719 353.464844 266.992188 353.035156 267.179688 352.582031 C 267.367188 352.132812 267.507812 351.664062 267.605469 351.183594 C 267.699219 350.703125 267.746094 350.21875 267.746094 349.730469 L 267.746094 342.941406 C 267.746094 341.0625 267.792969 339.183594 267.886719 337.308594 C 267.976562 335.429688 268.117188 333.558594 268.300781 331.6875 C 268.484375 329.816406 268.714844 327.953125 268.992188 326.09375 C 269.265625 324.234375 269.585938 322.382812 269.953125 320.542969 C 270.320312 318.699219 270.730469 316.867188 271.1875 315.042969 C 271.644531 313.21875 272.144531 311.410156 272.691406 309.613281 C 273.238281 307.8125 273.828125 306.03125 274.460938 304.261719 C 275.09375 302.492188 275.769531 300.738281 276.488281 299.003906 C 277.207031 297.265625 277.96875 295.550781 278.773438 293.851562 C 279.574219 292.152344 280.417969 290.472656 281.304688 288.816406 C 282.191406 287.160156 283.117188 285.523438 284.082031 283.914062 C 285.050781 282.300781 286.054688 280.714844 287.097656 279.152344 C 288.140625 277.589844 289.222656 276.054688 290.34375 274.542969 C 291.460938 273.035156 292.617188 271.554688 293.808594 270.101562 C 295.003906 268.648438 296.230469 267.226562 297.492188 265.835938 C 298.753906 264.441406 300.046875 263.082031 301.378906 261.753906 C 302.707031 260.425781 304.066406 259.128906 305.457031 257.867188 C 306.851562 256.605469 308.273438 255.378906 309.726562 254.1875 C 311.179688 252.992188 312.660156 251.839844 314.167969 250.71875 C 315.679688 249.601562 317.214844 248.519531 318.777344 247.472656 C 320.339844 246.429688 321.925781 245.425781 323.539062 244.460938 C 325.148438 243.492188 326.785156 242.566406 328.441406 241.679688 C 330.097656 240.796875 331.777344 239.949219 333.476562 239.148438 C 335.171875 238.34375 336.890625 237.582031 338.625 236.863281 C 340.363281 236.144531 342.117188 235.46875 343.886719 234.835938 C 345.652344 234.203125 347.4375 233.613281 349.234375 233.066406 C 351.035156 232.523438 352.84375 232.019531 354.667969 231.566406 C 356.488281 231.109375 358.324219 230.695312 360.164062 230.328125 C 362.007812 229.964844 363.859375 229.640625 365.71875 229.367188 C 367.578125 229.089844 369.441406 228.859375 371.3125 228.675781 C 373.183594 228.492188 375.054688 228.355469 376.933594 228.261719 C 378.808594 228.167969 380.6875 228.125 382.566406 228.125 C 384.445312 228.125 386.324219 228.167969 388.199219 228.261719 C 390.078125 228.355469 391.949219 228.492188 393.820312 228.675781 C 395.691406 228.859375 397.554688 229.089844 399.414062 229.367188 C 401.273438 229.640625 403.121094 229.964844 404.964844 230.328125 C 406.808594 230.695312 408.640625 231.109375 410.464844 231.566406 C 412.285156 232.019531 414.097656 232.523438 415.894531 233.066406 C 417.695312 233.613281 419.476562 234.203125 421.246094 234.835938 C 423.015625 235.46875 424.769531 236.144531 426.503906 236.863281 C 428.242188 237.582031 429.957031 238.34375 431.65625 239.148438 C 433.355469 239.949219 435.035156 240.796875 436.691406 241.679688 C 438.347656 242.566406 439.980469 243.492188 441.59375 244.460938 C 443.207031 245.425781 444.792969 246.429688 446.355469 247.472656 C 447.917969 248.519531 449.453125 249.601562 450.960938 250.71875 C 452.472656 251.839844 453.953125 252.992188 455.40625 254.1875 C 456.859375 255.378906 458.28125 256.605469 459.671875 257.867188 C 461.066406 259.128906 462.425781 260.425781 463.753906 261.753906 C 465.082031 263.082031 466.378906 264.441406 467.640625 265.835938 C 468.902344 267.226562 470.128906 268.648438 471.320312 270.101562 C 472.511719 271.554688 473.667969 273.035156 474.789062 274.542969 C 475.90625 276.054688 476.988281 277.589844 478.035156 279.152344 C 479.078125 280.714844 480.082031 282.300781 481.046875 283.914062 C 482.015625 285.523438 482.941406 287.160156 483.824219 288.816406 C 484.710938 290.472656 485.554688 292.152344 486.359375 293.851562 C 487.164062 295.550781 487.925781 297.265625 488.644531 299.003906 C 489.363281 300.738281 490.039062 302.492188 490.671875 304.261719 C 491.304688 306.03125 491.894531 307.8125 492.441406 309.613281 C 492.984375 311.410156 493.484375 313.21875 493.941406 315.042969 C 494.398438 316.867188 494.8125 318.699219 495.175781 320.542969 C 495.542969 322.382812 495.863281 324.234375 496.140625 326.09375 C 496.417969 327.953125 496.648438 329.816406 496.832031 331.6875 C 497.015625 333.558594 497.152344 335.429688 497.246094 337.308594 C 497.335938 339.183594 497.382812 341.0625 497.382812 342.941406 L 497.382812 349.730469 C 497.382812 350.21875 497.429688 350.703125 497.527344 351.183594 C 497.621094 351.664062 497.765625 352.132812 497.953125 352.582031 C 498.140625 353.035156 498.367188 353.464844 498.640625 353.871094 C 498.914062 354.28125 499.222656 354.65625 499.566406 355.003906 C 499.914062 355.347656 500.292969 355.660156 500.699219 355.929688 C 501.105469 356.203125 501.535156 356.433594 501.988281 356.621094 C 502.441406 356.808594 502.90625 356.949219 503.386719 357.042969 C 503.867188 357.140625 504.351562 357.1875 504.84375 357.1875 L 518.773438 357.1875 C 520.128906 357.1875 521.488281 357.222656 522.847656 357.289062 C 524.203125 357.355469 525.558594 357.453125 526.914062 357.585938 C 528.265625 357.722656 529.613281 357.886719 530.957031 358.085938 C 532.300781 358.285156 533.640625 358.519531 534.972656 358.785156 C 536.308594 359.046875 537.632812 359.347656 538.953125 359.675781 C 540.269531 360.007812 541.578125 360.371094 542.878906 360.765625 C 544.179688 361.160156 545.472656 361.585938 546.75 362.042969 C 548.03125 362.5 549.296875 362.988281 550.554688 363.511719 C 551.808594 364.03125 553.050781 364.582031 554.28125 365.160156 C 555.511719 365.742188 556.722656 366.355469 557.921875 366.996094 C 559.121094 367.636719 560.304688 368.304688 561.46875 369.003906 C 562.636719 369.703125 563.78125 370.429688 564.914062 371.183594 C 566.042969 371.941406 567.15625 372.722656 568.246094 373.53125 C 569.339844 374.339844 570.410156 375.175781 571.460938 376.039062 C 572.511719 376.902344 573.539062 377.789062 574.546875 378.703125 C 575.554688 379.617188 576.539062 380.550781 577.5 381.511719 C 578.460938 382.472656 579.398438 383.457031 580.308594 384.464844 C 581.222656 385.472656 582.109375 386.5 582.972656 387.550781 C 583.835938 388.601562 584.671875 389.675781 585.480469 390.765625 C 586.289062 391.859375 587.074219 392.96875 587.828125 394.097656 C 588.582031 395.230469 589.308594 396.378906 590.007812 397.542969 C 590.707031 398.707031 591.378906 399.890625 592.019531 401.089844 C 592.660156 402.289062 593.269531 403.503906 593.851562 404.730469 C 594.433594 405.960938 594.980469 407.203125 595.503906 408.457031 C 596.023438 409.714844 596.511719 410.980469 596.96875 412.261719 C 597.425781 413.539062 597.855469 414.832031 598.25 416.132812 C 598.644531 417.433594 599.003906 418.742188 599.335938 420.058594 C 599.664062 421.378906 599.964844 422.703125 600.230469 424.039062 C 600.492188 425.371094 600.726562 426.710938 600.925781 428.054688 C 601.125 429.398438 601.292969 430.746094 601.425781 432.101562 C 601.558594 433.453125 601.65625 434.808594 601.722656 436.164062 C 601.792969 437.523438 601.824219 438.882812 601.824219 440.242188 C 601.824219 441.601562 601.792969 442.957031 601.722656 444.316406 C 601.65625 445.671875 601.558594 447.027344 601.425781 448.382812 C 601.292969 449.734375 601.125 451.082031 600.925781 452.425781 C 600.726562 453.773438 600.492188 455.109375 600.230469 456.445312 C 599.964844 457.777344 599.664062 459.101562 599.335938 460.421875 C 599.003906 461.738281 598.644531 463.050781 598.25 464.351562 C 597.855469 465.652344 597.425781 466.941406 596.96875 468.21875 C 596.511719 469.5 596.023438 470.769531 595.503906 472.023438 C 594.980469 473.28125 594.433594 474.523438 593.851562 475.75 C 593.269531 476.980469 592.660156 478.191406 592.019531 479.390625 C 591.378906 480.589844 590.707031 481.773438 590.007812 482.9375 C 589.308594 484.105469 588.582031 485.253906 587.828125 486.382812 C 587.074219 487.511719 586.289062 488.625 585.480469 489.714844 C 584.671875 490.808594 583.835938 491.878906 582.972656 492.929688 C 582.109375 493.980469 581.222656 495.007812 580.308594 496.015625 C 579.398438 497.023438 578.460938 498.007812 577.5 498.96875 C 576.539062 499.929688 575.554688 500.867188 574.546875 501.777344 C 573.539062 502.691406 572.511719 503.578125 571.460938 504.441406 C 570.410156 505.304688 569.339844 506.140625 568.246094 506.949219 C 567.15625 507.757812 566.042969 508.542969 564.914062 509.296875 C 563.78125 510.050781 562.636719 510.777344 561.46875 511.476562 C 560.304688 512.175781 559.121094 512.847656 557.921875 513.488281 C 556.722656 514.128906 555.511719 514.738281 554.28125 515.320312 C 553.050781 515.902344 551.808594 516.453125 550.554688 516.972656 C 549.296875 517.492188 548.03125 517.980469 546.75 518.4375 C 545.472656 518.898438 544.179688 519.324219 542.878906 519.71875 C 541.578125 520.113281 540.269531 520.472656 538.953125 520.804688 C 537.632812 521.136719 536.308594 521.433594 534.972656 521.699219 C 533.640625 521.964844 532.300781 522.195312 530.957031 522.394531 C 529.613281 522.59375 528.265625 522.761719 526.914062 522.894531 C 525.558594 523.027344 524.203125 523.128906 522.847656 523.195312 C 521.488281 523.261719 520.128906 523.292969 518.773438 523.292969 L 435.28125 523.292969 C 434.789062 523.292969 434.304688 523.339844 433.824219 523.4375 C 433.34375 523.53125 432.878906 523.675781 432.425781 523.863281 C 431.972656 524.050781 431.542969 524.277344 431.136719 524.550781 C 430.730469 524.824219 430.351562 525.132812 430.007812 525.476562 C 429.660156 525.824219 429.351562 526.203125 429.078125 526.609375 C 428.804688 527.015625 428.578125 527.445312 428.390625 527.898438 C 428.203125 528.351562 428.058594 528.816406 427.964844 529.296875 C 427.871094 529.777344 427.820312 530.261719 427.820312 530.753906 C 427.820312 531.242188 427.871094 531.726562 427.964844 532.207031 C 428.058594 532.6875 428.203125 533.15625 428.390625 533.605469 C 428.578125 534.058594 428.804688 534.488281 429.078125 534.894531 C 429.351562 535.304688 429.660156 535.679688 430.007812 536.027344 C 430.351562 536.371094 430.730469 536.683594 431.136719 536.953125 C 431.542969 537.226562 431.972656 537.457031 432.425781 537.644531 C 432.878906 537.832031 433.34375 537.972656 433.824219 538.066406 C 434.304688 538.164062 434.789062 538.210938 435.28125 538.210938 L 518.773438 538.210938 C 520.375 538.210938 521.976562 538.171875 523.578125 538.09375 C 525.179688 538.015625 526.777344 537.898438 528.375 537.738281 C 529.96875 537.582031 531.5625 537.386719 533.148438 537.152344 C 534.734375 536.914062 536.3125 536.640625 537.882812 536.328125 C 539.457031 536.015625 541.019531 535.664062 542.578125 535.273438 C 544.132812 534.886719 545.675781 534.457031 547.210938 533.992188 C 548.746094 533.527344 550.265625 533.023438 551.777344 532.484375 C 553.285156 531.945312 554.78125 531.367188 556.261719 530.753906 C 557.746094 530.140625 559.210938 529.492188 560.660156 528.804688 C 562.109375 528.121094 563.539062 527.398438 564.953125 526.644531 C 566.367188 525.886719 567.761719 525.097656 569.136719 524.273438 C 570.515625 523.449219 571.867188 522.589844 573.199219 521.699219 C 574.535156 520.808594 575.84375 519.886719 577.132812 518.929688 C 578.421875 517.976562 579.683594 516.988281 580.921875 515.972656 C 582.164062 514.957031 583.375 513.910156 584.566406 512.832031 C 585.753906 511.753906 586.914062 510.648438 588.046875 509.515625 C 589.179688 508.382812 590.285156 507.222656 591.363281 506.035156 C 592.441406 504.84375 593.488281 503.632812 594.503906 502.390625 C 595.519531 501.152344 596.507812 499.890625 597.460938 498.601562 C 598.417969 497.3125 599.339844 496.003906 600.230469 494.671875 C 601.121094 493.335938 601.980469 491.984375 602.804688 490.609375 C 603.628906 489.230469 604.417969 487.835938 605.175781 486.421875 C 605.929688 485.007812 606.648438 483.578125 607.335938 482.128906 C 608.019531 480.679688 608.671875 479.214844 609.285156 477.730469 C 609.898438 476.25 610.476562 474.753906 611.015625 473.246094 C 611.554688 471.738281 612.058594 470.214844 612.523438 468.679688 C 612.988281 467.144531 613.417969 465.601562 613.804688 464.046875 C 614.195312 462.492188 614.546875 460.925781 614.859375 459.355469 C 615.171875 457.78125 615.445312 456.203125 615.683594 454.617188 C 615.917969 453.03125 616.113281 451.4375 616.269531 449.84375 C 616.425781 448.246094 616.546875 446.648438 616.625 445.046875 C 616.703125 443.445312 616.742188 441.84375 616.742188 440.242188 C 616.742188 438.636719 616.703125 437.035156 616.625 435.433594 C 616.546875 433.832031 616.425781 432.234375 616.269531 430.636719 C 616.113281 429.042969 615.917969 427.453125 615.679688 425.867188 C 615.445312 424.28125 615.171875 422.699219 614.859375 421.128906 C 614.546875 419.554688 614.195312 417.992188 613.804688 416.4375 C 613.417969 414.878906 612.988281 413.335938 612.523438 411.800781 C 612.058594 410.265625 611.554688 408.746094 611.015625 407.234375 C 610.476562 405.726562 609.898438 404.230469 609.285156 402.75 C 608.671875 401.269531 608.019531 399.800781 607.335938 398.351562 C 606.648438 396.902344 605.929688 395.472656 605.171875 394.058594 C 604.417969 392.644531 603.628906 391.25 602.804688 389.875 C 601.980469 388.5 601.121094 387.144531 600.230469 385.8125 C 599.339844 384.476562 598.417969 383.167969 597.460938 381.878906 C 596.507812 380.59375 595.519531 379.328125 594.503906 378.089844 C 593.488281 376.847656 592.441406 375.636719 591.363281 374.449219 C 590.285156 373.261719 589.179688 372.097656 588.046875 370.964844 C 586.914062 369.832031 585.753906 368.726562 584.566406 367.648438 C 583.375 366.574219 582.164062 365.527344 580.921875 364.507812 C 579.683594 363.492188 578.421875 362.503906 577.132812 361.550781 C 575.84375 360.59375 574.535156 359.671875 573.199219 358.78125 C 571.867188 357.890625 570.515625 357.03125 569.136719 356.207031 C 567.761719 355.382812 566.367188 354.59375 564.953125 353.839844 C 563.539062 353.082031 562.109375 352.363281 560.660156 351.675781 C 559.210938 350.992188 557.746094 350.339844 556.261719 349.726562 C 554.78125 349.113281 553.285156 348.539062 551.777344 347.996094 C 550.265625 347.457031 548.746094 346.953125 547.210938 346.488281 C 545.675781 346.023438 544.132812 345.597656 542.578125 345.207031 C 541.019531 344.816406 539.457031 344.464844 537.882812 344.152344 C 536.3125 343.839844 534.734375 343.566406 533.148438 343.332031 C 531.5625 343.09375 529.96875 342.898438 528.375 342.742188 C 526.777344 342.585938 525.179688 342.46875 523.578125 342.386719 C 521.976562 342.308594 520.375 342.269531 518.773438 342.269531 Z M 518.773438 342.269531 " fill-opacity="1" fill-rule="nonzero"/>
    </g>
    <g clip-path="url(#fb2f7d2d18)">
        <path fill="#0026a3" d="M 426.898438 567.703125 L 390.023438 604.574219 L 390.023438 403.964844 C 390.023438 403.472656 389.976562 402.988281 389.882812 402.507812 C 389.785156 402.027344 389.644531 401.5625 389.457031 401.109375 C 389.269531 400.65625 389.039062 400.226562 388.765625 399.820312 C 388.496094 399.414062 388.1875 399.035156 387.839844 398.6875 C 387.492188 398.34375 387.117188 398.035156 386.710938 397.761719 C 386.300781 397.488281 385.871094 397.261719 385.421875 397.074219 C 384.96875 396.886719 384.5 396.742188 384.019531 396.648438 C 383.539062 396.550781 383.054688 396.503906 382.566406 396.503906 C 382.074219 396.503906 381.589844 396.550781 381.109375 396.648438 C 380.628906 396.742188 380.164062 396.886719 379.710938 397.074219 C 379.257812 397.261719 378.828125 397.488281 378.421875 397.761719 C 378.015625 398.035156 377.636719 398.34375 377.292969 398.6875 C 376.945312 399.035156 376.636719 399.414062 376.363281 399.820312 C 376.09375 400.226562 375.863281 400.65625 375.675781 401.109375 C 375.488281 401.5625 375.347656 402.027344 375.25 402.507812 C 375.15625 402.988281 375.105469 403.472656 375.105469 403.964844 L 375.105469 604.574219 L 338.234375 567.703125 C 337.886719 567.355469 337.507812 567.046875 337.101562 566.773438 C 336.695312 566.503906 336.265625 566.273438 335.8125 566.085938 C 335.359375 565.898438 334.894531 565.757812 334.414062 565.660156 C 333.933594 565.566406 333.445312 565.519531 332.957031 565.519531 C 332.46875 565.519531 331.980469 565.566406 331.503906 565.664062 C 331.023438 565.757812 330.554688 565.898438 330.101562 566.085938 C 329.652344 566.273438 329.21875 566.503906 328.8125 566.777344 C 328.40625 567.050781 328.03125 567.359375 327.683594 567.707031 C 327.335938 568.050781 327.027344 568.429688 326.757812 568.835938 C 326.484375 569.242188 326.253906 569.675781 326.066406 570.125 C 325.878906 570.578125 325.738281 571.046875 325.644531 571.527344 C 325.546875 572.007812 325.5 572.492188 325.5 572.980469 C 325.5 573.472656 325.550781 573.957031 325.644531 574.4375 C 325.742188 574.917969 325.882812 575.382812 326.070312 575.835938 C 326.257812 576.289062 326.488281 576.71875 326.761719 577.125 C 327.03125 577.53125 327.339844 577.910156 327.6875 578.253906 L 377.289062 627.863281 C 377.636719 628.210938 378.011719 628.523438 378.417969 628.792969 C 378.828125 629.066406 379.257812 629.296875 379.710938 629.484375 C 380.164062 629.671875 380.628906 629.8125 381.109375 629.910156 C 381.589844 630.003906 382.074219 630.050781 382.566406 630.050781 C 383.054688 630.050781 383.542969 630.003906 384.023438 629.910156 C 384.503906 629.8125 384.96875 629.671875 385.421875 629.484375 C 385.875 629.296875 386.304688 629.066406 386.710938 628.792969 C 387.121094 628.523438 387.496094 628.210938 387.84375 627.863281 L 437.445312 578.253906 C 437.773438 577.90625 438.070312 577.527344 438.328125 577.121094 C 438.585938 576.714844 438.804688 576.289062 438.980469 575.839844 C 439.15625 575.390625 439.289062 574.929688 439.375 574.457031 C 439.460938 573.980469 439.5 573.503906 439.492188 573.023438 C 439.488281 572.539062 439.4375 572.0625 439.335938 571.59375 C 439.238281 571.121094 439.09375 570.664062 438.910156 570.21875 C 438.722656 569.777344 438.492188 569.355469 438.222656 568.953125 C 437.957031 568.554688 437.652344 568.183594 437.308594 567.84375 C 436.96875 567.503906 436.597656 567.199219 436.199219 566.929688 C 435.800781 566.660156 435.378906 566.433594 434.933594 566.246094 C 434.492188 566.058594 434.03125 565.914062 433.5625 565.816406 C 433.089844 565.71875 432.613281 565.664062 432.132812 565.660156 C 431.648438 565.652344 431.171875 565.695312 430.699219 565.78125 C 430.222656 565.867188 429.761719 565.996094 429.316406 566.171875 C 428.867188 566.347656 428.4375 566.566406 428.03125 566.824219 C 427.625 567.082031 427.246094 567.378906 426.898438 567.710938 Z M 426.898438 567.703125 " fill-opacity="1" fill-rule="nonzero"/>
    </g>
    <g clip-path="url(#90c0d15717)">
        <path fill="#0026a3" d="M 518.773438 385.945312 L 512.300781 385.945312 C 511.9375 314.714844 453.878906 256.882812 382.566406 256.882812 C 311.25 256.882812 253.195312 314.6875 252.832031 385.945312 L 246.359375 385.945312 C 244.757812 385.945312 243.152344 385.988281 241.554688 386.066406 C 239.953125 386.144531 238.351562 386.261719 236.757812 386.417969 C 235.160156 386.574219 233.570312 386.773438 231.984375 387.007812 C 230.398438 387.242188 228.820312 387.515625 227.246094 387.828125 C 225.675781 388.140625 224.109375 388.492188 222.554688 388.882812 C 221 389.273438 219.453125 389.699219 217.921875 390.164062 C 216.386719 390.632812 214.863281 391.132812 213.355469 391.675781 C 211.84375 392.214844 210.351562 392.789062 208.867188 393.40625 C 207.386719 394.019531 205.921875 394.667969 204.472656 395.351562 C 203.023438 396.039062 201.589844 396.757812 200.175781 397.515625 C 198.761719 398.269531 197.367188 399.0625 195.992188 399.886719 C 194.617188 400.710938 193.265625 401.566406 191.929688 402.457031 C 190.597656 403.347656 189.285156 404.273438 188 405.226562 C 186.710938 406.183594 185.449219 407.167969 184.207031 408.183594 C 182.96875 409.203125 181.753906 410.25 180.566406 411.324219 C 179.378906 412.402344 178.21875 413.507812 177.085938 414.640625 C 175.949219 415.777344 174.84375 416.9375 173.769531 418.125 C 172.691406 419.3125 171.644531 420.527344 170.628906 421.765625 C 169.609375 423.003906 168.625 424.269531 167.667969 425.554688 C 166.714844 426.84375 165.792969 428.15625 164.902344 429.488281 C 164.011719 430.820312 163.152344 432.175781 162.328125 433.550781 C 161.503906 434.925781 160.714844 436.320312 159.957031 437.734375 C 159.203125 439.148438 158.480469 440.582031 157.796875 442.03125 C 157.109375 443.480469 156.460938 444.945312 155.847656 446.425781 C 155.234375 447.90625 154.65625 449.402344 154.117188 450.914062 C 153.578125 452.421875 153.074219 453.945312 152.609375 455.476562 C 152.144531 457.011719 151.714844 458.558594 151.324219 460.113281 C 150.9375 461.667969 150.585938 463.230469 150.273438 464.804688 C 149.960938 466.375 149.683594 467.957031 149.449219 469.542969 C 149.214844 471.128906 149.019531 472.71875 148.859375 474.316406 C 148.703125 475.910156 148.585938 477.507812 148.507812 479.109375 C 148.429688 480.710938 148.390625 482.3125 148.390625 483.917969 C 148.390625 485.519531 148.429688 487.125 148.507812 488.726562 C 148.585938 490.324219 148.703125 491.925781 148.859375 493.519531 C 149.019531 495.117188 149.214844 496.707031 149.449219 498.292969 C 149.683594 499.878906 149.960938 501.457031 150.273438 503.03125 C 150.585938 504.601562 150.9375 506.167969 151.324219 507.722656 C 151.714844 509.277344 152.144531 510.824219 152.609375 512.355469 C 153.074219 513.890625 153.578125 515.414062 154.117188 516.921875 C 154.65625 518.433594 155.234375 519.929688 155.847656 521.410156 C 156.460938 522.890625 157.109375 524.355469 157.796875 525.804688 C 158.480469 527.253906 159.203125 528.6875 159.957031 530.101562 C 160.714844 531.515625 161.503906 532.910156 162.328125 534.285156 C 163.152344 535.660156 164.011719 537.015625 164.902344 538.347656 C 165.792969 539.679688 166.714844 540.992188 167.667969 542.277344 C 168.625 543.566406 169.609375 544.828125 170.628906 546.070312 C 171.644531 547.308594 172.691406 548.523438 173.769531 549.710938 C 174.84375 550.898438 175.949219 552.058594 177.085938 553.191406 C 178.21875 554.328125 179.378906 555.433594 180.566406 556.507812 C 181.753906 557.585938 182.96875 558.632812 184.207031 559.648438 C 185.449219 560.667969 186.710938 561.652344 188 562.609375 C 189.285156 563.5625 190.597656 564.484375 191.929688 565.375 C 193.265625 566.269531 194.617188 567.125 195.992188 567.949219 C 197.367188 568.773438 198.761719 569.5625 200.175781 570.320312 C 201.589844 571.074219 203.023438 571.796875 204.472656 572.480469 C 205.921875 573.167969 207.386719 573.816406 208.867188 574.429688 C 210.351562 575.042969 211.84375 575.621094 213.355469 576.160156 C 214.863281 576.699219 216.386719 577.203125 217.921875 577.667969 C 219.453125 578.132812 221 578.5625 222.554688 578.953125 C 224.109375 579.339844 225.675781 579.691406 227.246094 580.003906 C 228.820312 580.316406 230.398438 580.59375 231.984375 580.828125 C 233.570312 581.0625 235.160156 581.257812 236.757812 581.417969 C 238.351562 581.574219 239.953125 581.691406 241.554688 581.769531 C 243.152344 581.847656 244.757812 581.886719 246.359375 581.886719 L 327.242188 581.886719 C 327.730469 581.886719 328.214844 581.839844 328.695312 581.746094 C 329.175781 581.648438 329.640625 581.507812 330.09375 581.320312 C 330.546875 581.132812 330.976562 580.902344 331.382812 580.632812 C 331.792969 580.359375 332.167969 580.050781 332.515625 579.703125 C 332.859375 579.355469 333.171875 578.980469 333.441406 578.574219 C 333.714844 578.164062 333.945312 577.734375 334.132812 577.285156 C 334.320312 576.832031 334.460938 576.363281 334.554688 575.882812 C 334.652344 575.402344 334.699219 574.917969 334.699219 574.429688 C 334.699219 573.9375 334.652344 573.453125 334.554688 572.972656 C 334.460938 572.492188 334.320312 572.027344 334.132812 571.574219 C 333.945312 571.121094 333.714844 570.691406 333.441406 570.285156 C 333.171875 569.878906 332.859375 569.5 332.515625 569.15625 C 332.167969 568.808594 331.792969 568.5 331.382812 568.226562 C 330.976562 567.957031 330.546875 567.726562 330.09375 567.539062 C 329.640625 567.351562 329.175781 567.210938 328.695312 567.113281 C 328.214844 567.019531 327.730469 566.96875 327.242188 566.96875 L 246.359375 566.96875 C 245 566.96875 243.640625 566.9375 242.285156 566.871094 C 240.925781 566.804688 239.570312 566.703125 238.21875 566.570312 C 236.867188 566.4375 235.519531 566.269531 234.171875 566.070312 C 232.828125 565.871094 231.492188 565.640625 230.15625 565.375 C 228.824219 565.109375 227.5 564.8125 226.179688 564.480469 C 224.859375 564.152344 223.550781 563.789062 222.25 563.394531 C 220.949219 563 219.660156 562.574219 218.378906 562.117188 C 217.101562 561.65625 215.832031 561.167969 214.578125 560.648438 C 213.320312 560.128906 212.078125 559.578125 210.851562 558.996094 C 209.621094 558.414062 208.40625 557.804688 207.210938 557.164062 C 206.011719 556.523438 204.828125 555.851562 203.664062 555.15625 C 202.496094 554.457031 201.347656 553.730469 200.21875 552.972656 C 199.089844 552.21875 197.976562 551.4375 196.886719 550.625 C 195.792969 549.816406 194.722656 548.980469 193.671875 548.117188 C 192.621094 547.257812 191.59375 546.367188 190.585938 545.457031 C 189.578125 544.542969 188.59375 543.605469 187.632812 542.644531 C 186.671875 541.683594 185.734375 540.699219 184.820312 539.691406 C 183.910156 538.683594 183.019531 537.65625 182.160156 536.605469 C 181.296875 535.554688 180.460938 534.484375 179.652344 533.390625 C 178.839844 532.300781 178.058594 531.1875 177.304688 530.058594 C 176.550781 528.929688 175.820312 527.78125 175.125 526.613281 C 174.425781 525.449219 173.753906 524.265625 173.113281 523.066406 C 172.472656 521.871094 171.863281 520.65625 171.28125 519.425781 C 170.699219 518.199219 170.148438 516.957031 169.628906 515.699219 C 169.109375 514.445312 168.621094 513.175781 168.160156 511.898438 C 167.703125 510.617188 167.277344 509.328125 166.882812 508.027344 C 166.488281 506.726562 166.125 505.417969 165.796875 504.097656 C 165.464844 502.777344 165.167969 501.453125 164.902344 500.121094 C 164.636719 498.789062 164.40625 497.449219 164.207031 496.105469 C 164.007812 494.757812 163.839844 493.410156 163.707031 492.058594 C 163.574219 490.707031 163.472656 489.351562 163.40625 487.992188 C 163.339844 486.636719 163.308594 485.277344 163.308594 483.917969 C 163.308594 482.558594 163.339844 481.199219 163.40625 479.84375 C 163.472656 478.484375 163.574219 477.128906 163.707031 475.777344 C 163.839844 474.425781 164.007812 473.074219 164.207031 471.730469 C 164.40625 470.386719 164.636719 469.046875 164.902344 467.714844 C 165.167969 466.382812 165.464844 465.054688 165.796875 463.738281 C 166.125 462.417969 166.488281 461.109375 166.882812 459.808594 C 167.277344 458.507812 167.703125 457.21875 168.160156 455.9375 C 168.621094 454.65625 169.109375 453.390625 169.628906 452.132812 C 170.148438 450.878906 170.699219 449.636719 171.28125 448.40625 C 171.863281 447.179688 172.472656 445.964844 173.113281 444.765625 C 173.753906 443.566406 174.425781 442.386719 175.125 441.21875 C 175.820312 440.054688 176.550781 438.90625 177.304688 437.777344 C 178.058594 436.644531 178.839844 435.535156 179.652344 434.441406 C 180.460938 433.351562 181.296875 432.28125 182.160156 431.230469 C 183.019531 430.179688 183.910156 429.148438 184.820312 428.140625 C 185.734375 427.136719 186.671875 426.152344 187.632812 425.191406 C 188.59375 424.230469 189.578125 423.292969 190.585938 422.378906 C 191.59375 421.464844 192.621094 420.578125 193.671875 419.714844 C 194.722656 418.855469 195.792969 418.019531 196.886719 417.207031 C 197.976562 416.398438 199.089844 415.617188 200.21875 414.863281 C 201.347656 414.105469 202.496094 413.378906 203.664062 412.679688 C 204.828125 411.980469 206.011719 411.3125 207.210938 410.671875 C 208.40625 410.03125 209.621094 409.417969 210.851562 408.839844 C 212.078125 408.257812 213.320312 407.707031 214.578125 407.1875 C 215.832031 406.667969 217.101562 406.175781 218.378906 405.71875 C 219.660156 405.261719 220.949219 404.835938 222.25 404.441406 C 223.550781 404.046875 224.859375 403.683594 226.179688 403.351562 C 227.5 403.023438 228.824219 402.726562 230.15625 402.460938 C 231.492188 402.195312 232.828125 401.960938 234.171875 401.761719 C 235.519531 401.5625 236.867188 401.398438 238.21875 401.265625 C 239.570312 401.132812 240.925781 401.03125 242.285156 400.964844 C 243.640625 400.898438 245 400.863281 246.359375 400.863281 L 260.289062 400.863281 C 260.777344 400.863281 261.265625 400.816406 261.746094 400.722656 C 262.226562 400.625 262.691406 400.484375 263.144531 400.296875 C 263.597656 400.109375 264.027344 399.878906 264.433594 399.605469 C 264.839844 399.335938 265.21875 399.027344 265.5625 398.679688 C 265.910156 398.332031 266.21875 397.957031 266.492188 397.550781 C 266.761719 397.140625 266.992188 396.710938 267.179688 396.261719 C 267.367188 395.808594 267.507812 395.339844 267.605469 394.859375 C 267.699219 394.378906 267.746094 393.894531 267.746094 393.40625 L 267.746094 386.617188 C 267.746094 384.738281 267.792969 382.859375 267.886719 380.984375 C 267.976562 379.109375 268.117188 377.234375 268.300781 375.363281 C 268.484375 373.492188 268.714844 371.628906 268.992188 369.769531 C 269.265625 367.914062 269.585938 366.0625 269.953125 364.21875 C 270.320312 362.375 270.730469 360.542969 271.1875 358.71875 C 271.644531 356.898438 272.144531 355.085938 272.691406 353.289062 C 273.238281 351.488281 273.828125 349.707031 274.460938 347.9375 C 275.09375 346.167969 275.769531 344.414062 276.488281 342.679688 C 277.207031 340.941406 277.96875 339.226562 278.773438 337.527344 C 279.574219 335.828125 280.417969 334.152344 281.304688 332.492188 C 282.191406 330.835938 283.117188 329.203125 284.082031 327.589844 C 285.050781 325.976562 286.054688 324.390625 287.097656 322.828125 C 288.140625 321.265625 289.222656 319.730469 290.34375 318.222656 C 291.460938 316.710938 292.617188 315.230469 293.808594 313.777344 C 295.003906 312.324219 296.230469 310.902344 297.492188 309.511719 C 298.753906 308.117188 300.046875 306.757812 301.378906 305.429688 C 302.707031 304.101562 304.066406 302.804688 305.457031 301.542969 C 306.851562 300.28125 308.273438 299.054688 309.726562 297.863281 C 311.179688 296.671875 312.660156 295.515625 314.167969 294.394531 C 315.679688 293.277344 317.214844 292.195312 318.777344 291.152344 C 320.339844 290.105469 321.925781 289.101562 323.539062 288.136719 C 325.148438 287.167969 326.785156 286.242188 328.441406 285.359375 C 330.097656 284.472656 331.777344 283.628906 333.476562 282.824219 C 335.171875 282.019531 336.890625 281.257812 338.625 280.539062 C 340.363281 279.820312 342.117188 279.144531 343.886719 278.511719 C 345.652344 277.878906 347.4375 277.289062 349.234375 276.746094 C 351.035156 276.199219 352.84375 275.699219 354.667969 275.242188 C 356.488281 274.785156 358.324219 274.375 360.164062 274.007812 C 362.007812 273.640625 363.859375 273.320312 365.71875 273.042969 C 367.578125 272.765625 369.441406 272.539062 371.3125 272.351562 C 373.183594 272.167969 375.054688 272.03125 376.933594 271.9375 C 378.808594 271.847656 380.6875 271.800781 382.566406 271.800781 C 384.445312 271.800781 386.324219 271.847656 388.199219 271.9375 C 390.078125 272.03125 391.949219 272.167969 393.820312 272.351562 C 395.691406 272.539062 397.554688 272.765625 399.414062 273.042969 C 401.273438 273.320312 403.121094 273.640625 404.964844 274.007812 C 406.808594 274.375 408.640625 274.785156 410.464844 275.242188 C 412.285156 275.699219 414.097656 276.199219 415.894531 276.746094 C 417.695312 277.289062 419.476562 277.878906 421.246094 278.511719 C 423.015625 279.144531 424.769531 279.820312 426.503906 280.539062 C 428.242188 281.257812 429.957031 282.019531 431.65625 282.824219 C 433.355469 283.628906 435.035156 284.472656 436.691406 285.359375 C 438.347656 286.242188 439.980469 287.167969 441.59375 288.136719 C 443.207031 289.101562 444.792969 290.105469 446.355469 291.152344 C 447.917969 292.195312 449.453125 293.277344 450.960938 294.394531 C 452.472656 295.515625 453.953125 296.671875 455.40625 297.863281 C 456.859375 299.054688 458.28125 300.28125 459.671875 301.542969 C 461.066406 302.804688 462.425781 304.101562 463.753906 305.429688 C 465.082031 306.757812 466.378906 308.117188 467.640625 309.511719 C 468.902344 310.902344 470.128906 312.324219 471.320312 313.777344 C 472.511719 315.230469 473.667969 316.710938 474.789062 318.222656 C 475.90625 319.730469 476.988281 321.265625 478.035156 322.828125 C 479.078125 324.390625 480.082031 325.976562 481.046875 327.589844 C 482.015625 329.203125 482.941406 330.835938 483.824219 332.492188 C 484.710938 334.152344 485.554688 335.828125 486.359375 337.527344 C 487.164062 339.226562 487.925781 340.941406 488.644531 342.679688 C 489.363281 344.414062 490.039062 346.167969 490.671875 347.9375 C 491.304688 349.707031 491.894531 351.492188 492.441406 353.289062 C 492.984375 355.085938 493.484375 356.898438 493.941406 358.71875 C 494.398438 360.542969 494.8125 362.375 495.175781 364.21875 C 495.542969 366.0625 495.863281 367.914062 496.140625 369.769531 C 496.417969 371.628906 496.648438 373.492188 496.832031 375.363281 C 497.015625 377.234375 497.152344 379.109375 497.246094 380.984375 C 497.335938 382.859375 497.382812 384.738281 497.382812 386.617188 L 497.382812 393.40625 C 497.382812 393.894531 497.429688 394.378906 497.527344 394.859375 C 497.621094 395.339844 497.765625 395.808594 497.953125 396.261719 C 498.140625 396.710938 498.367188 397.140625 498.640625 397.550781 C 498.914062 397.957031 499.222656 398.332031 499.566406 398.679688 C 499.914062 399.027344 500.292969 399.335938 500.699219 399.605469 C 501.105469 399.878906 501.535156 400.109375 501.988281 400.296875 C 502.441406 400.484375 502.90625 400.625 503.386719 400.722656 C 503.867188 400.816406 504.351562 400.863281 504.84375 400.863281 L 518.773438 400.863281 C 520.128906 400.863281 521.488281 400.898438 522.847656 400.964844 C 524.203125 401.03125 525.558594 401.132812 526.914062 401.265625 C 528.265625 401.398438 529.613281 401.5625 530.957031 401.761719 C 532.300781 401.960938 533.640625 402.195312 534.972656 402.460938 C 536.308594 402.726562 537.632812 403.023438 538.953125 403.351562 C 540.269531 403.683594 541.578125 404.046875 542.878906 404.441406 C 544.179688 404.835938 545.472656 405.261719 546.75 405.71875 C 548.03125 406.175781 549.296875 406.667969 550.554688 407.1875 C 551.808594 407.707031 553.050781 408.257812 554.28125 408.839844 C 555.511719 409.417969 556.722656 410.03125 557.921875 410.671875 C 559.121094 411.3125 560.304688 411.980469 561.46875 412.679688 C 562.636719 413.378906 563.78125 414.105469 564.914062 414.863281 C 566.042969 415.617188 567.15625 416.398438 568.246094 417.207031 C 569.339844 418.019531 570.410156 418.855469 571.460938 419.714844 C 572.511719 420.578125 573.539062 421.464844 574.546875 422.378906 C 575.554688 423.292969 576.539062 424.230469 577.5 425.191406 C 578.460938 426.152344 579.398438 427.136719 580.308594 428.140625 C 581.222656 429.148438 582.109375 430.179688 582.972656 431.230469 C 583.835938 432.28125 584.671875 433.351562 585.480469 434.441406 C 586.289062 435.535156 587.074219 436.644531 587.828125 437.777344 C 588.582031 438.90625 589.308594 440.054688 590.007812 441.21875 C 590.707031 442.386719 591.378906 443.566406 592.019531 444.765625 C 592.660156 445.964844 593.269531 447.179688 593.851562 448.40625 C 594.433594 449.636719 594.980469 450.878906 595.503906 452.132812 C 596.023438 453.390625 596.511719 454.65625 596.96875 455.9375 C 597.425781 457.21875 597.855469 458.507812 598.25 459.808594 C 598.644531 461.109375 599.003906 462.417969 599.335938 463.738281 C 599.664062 465.054688 599.964844 466.382812 600.230469 467.714844 C 600.492188 469.046875 600.726562 470.386719 600.925781 471.730469 C 601.125 473.074219 601.292969 474.425781 601.425781 475.777344 C 601.558594 477.128906 601.65625 478.484375 601.722656 479.84375 C 601.792969 481.199219 601.824219 482.558594 601.824219 483.917969 C 601.824219 485.277344 601.792969 486.636719 601.722656 487.992188 C 601.65625 489.351562 601.558594 490.707031 601.425781 492.058594 C 601.292969 493.410156 601.125 494.757812 600.925781 496.105469 C 600.726562 497.449219 600.492188 498.789062 600.230469 500.121094 C 599.964844 501.453125 599.664062 502.777344 599.335938 504.097656 C 599.003906 505.417969 598.644531 506.726562 598.25 508.027344 C 597.855469 509.328125 597.425781 510.617188 596.96875 511.898438 C 596.511719 513.175781 596.023438 514.445312 595.503906 515.699219 C 594.980469 516.957031 594.433594 518.199219 593.851562 519.425781 C 593.269531 520.65625 592.660156 521.871094 592.019531 523.066406 C 591.378906 524.265625 590.707031 525.449219 590.007812 526.613281 C 589.308594 527.78125 588.582031 528.929688 587.828125 530.058594 C 587.074219 531.1875 586.289062 532.300781 585.480469 533.390625 C 584.671875 534.484375 583.835938 535.554688 582.972656 536.605469 C 582.109375 537.65625 581.222656 538.683594 580.308594 539.691406 C 579.398438 540.699219 578.460938 541.683594 577.5 542.644531 C 576.539062 543.605469 575.554688 544.542969 574.546875 545.457031 C 573.539062 546.367188 572.511719 547.257812 571.460938 548.117188 C 570.410156 548.980469 569.339844 549.816406 568.246094 550.625 C 567.15625 551.4375 566.042969 552.21875 564.914062 552.972656 C 563.78125 553.730469 562.636719 554.457031 561.46875 555.15625 C 560.304688 555.851562 559.121094 556.523438 557.921875 557.164062 C 556.722656 557.804688 555.511719 558.414062 554.28125 558.996094 C 553.050781 559.578125 551.808594 560.128906 550.554688 560.648438 C 549.296875 561.167969 548.03125 561.65625 546.75 562.117188 C 545.472656 562.574219 544.179688 563 542.878906 563.394531 C 541.578125 563.789062 540.269531 564.152344 538.953125 564.480469 C 537.632812 564.8125 536.308594 565.109375 534.972656 565.375 C 533.640625 565.640625 532.300781 565.871094 530.957031 566.070312 C 529.613281 566.269531 528.265625 566.4375 526.914062 566.570312 C 525.558594 566.703125 524.203125 566.804688 522.847656 566.871094 C 521.488281 566.9375 520.128906 566.96875 518.773438 566.96875 L 435.28125 566.96875 C 434.789062 566.96875 434.304688 567.019531 433.824219 567.113281 C 433.34375 567.210938 432.878906 567.351562 432.425781 567.539062 C 431.972656 567.726562 431.542969 567.957031 431.136719 568.226562 C 430.730469 568.5 430.351562 568.808594 430.007812 569.15625 C 429.660156 569.5 429.351562 569.878906 429.078125 570.285156 C 428.804688 570.691406 428.578125 571.121094 428.390625 571.574219 C 428.203125 572.027344 428.058594 572.492188 427.964844 572.972656 C 427.871094 573.453125 427.820312 573.9375 427.820312 574.429688 C 427.820312 574.917969 427.871094 575.402344 427.964844 575.882812 C 428.058594 576.363281 428.203125 576.832031 428.390625 577.285156 C 428.578125 577.734375 428.804688 578.164062 429.078125 578.574219 C 429.351562 578.980469 429.660156 579.355469 430.007812 579.703125 C 430.351562 580.050781 430.730469 580.359375 431.136719 580.628906 C 431.542969 580.902344 431.972656 581.132812 432.425781 581.320312 C 432.878906 581.507812 433.34375 581.648438 433.824219 581.746094 C 434.304688 581.839844 434.789062 581.886719 435.28125 581.886719 L 518.773438 581.886719 C 520.375 581.886719 521.976562 581.847656 523.578125 581.769531 C 525.179688 581.691406 526.777344 581.574219 528.375 581.417969 C 529.96875 581.257812 531.5625 581.0625 533.148438 580.828125 C 534.734375 580.59375 536.3125 580.316406 537.882812 580.003906 C 539.457031 579.691406 541.019531 579.339844 542.578125 578.953125 C 544.132812 578.5625 545.675781 578.132812 547.210938 577.667969 C 548.746094 577.203125 550.265625 576.699219 551.777344 576.160156 C 553.285156 575.621094 554.78125 575.042969 556.261719 574.429688 C 557.746094 573.816406 559.210938 573.167969 560.660156 572.480469 C 562.109375 571.796875 563.539062 571.074219 564.953125 570.320312 C 566.367188 569.5625 567.761719 568.773438 569.136719 567.949219 C 570.515625 567.125 571.867188 566.269531 573.199219 565.375 C 574.535156 564.484375 575.84375 563.5625 577.132812 562.609375 C 578.421875 561.652344 579.683594 560.667969 580.921875 559.648438 C 582.164062 558.632812 583.375 557.585938 584.566406 556.507812 C 585.753906 555.433594 586.914062 554.328125 588.046875 553.191406 C 589.179688 552.058594 590.285156 550.898438 591.363281 549.710938 C 592.441406 548.523438 593.488281 547.308594 594.503906 546.070312 C 595.519531 544.828125 596.507812 543.566406 597.460938 542.277344 C 598.417969 540.992188 599.339844 539.679688 600.230469 538.347656 C 601.121094 537.015625 601.980469 535.660156 602.804688 534.285156 C 603.628906 532.910156 604.417969 531.515625 605.175781 530.101562 C 605.929688 528.6875 606.648438 527.253906 607.335938 525.804688 C 608.019531 524.355469 608.671875 522.890625 609.285156 521.410156 C 609.898438 519.929688 610.476562 518.433594 611.015625 516.921875 C 611.554688 515.414062 612.058594 513.890625 612.523438 512.355469 C 612.988281 510.824219 613.417969 509.277344 613.804688 507.722656 C 614.195312 506.167969 614.546875 504.601562 614.859375 503.03125 C 615.171875 501.457031 615.445312 499.878906 615.683594 498.292969 C 615.917969 496.707031 616.113281 495.117188 616.269531 493.519531 C 616.425781 491.925781 616.546875 490.324219 616.625 488.726562 C 616.703125 487.125 616.742188 485.519531 616.742188 483.917969 C 616.742188 482.3125 616.703125 480.710938 616.625 479.109375 C 616.546875 477.507812 616.425781 475.910156 616.269531 474.316406 C 616.113281 472.71875 615.917969 471.128906 615.679688 469.542969 C 615.445312 467.957031 615.171875 466.375 614.859375 464.804688 C 614.546875 463.230469 614.195312 461.667969 613.804688 460.113281 C 613.417969 458.558594 612.988281 457.011719 612.523438 455.476562 C 612.058594 453.945312 611.554688 452.421875 611.015625 450.914062 C 610.476562 449.402344 609.898438 447.90625 609.285156 446.425781 C 608.671875 444.945312 608.019531 443.480469 607.335938 442.03125 C 606.648438 440.582031 605.929688 439.148438 605.171875 437.734375 C 604.417969 436.320312 603.628906 434.925781 602.804688 433.550781 C 601.980469 432.175781 601.121094 430.820312 600.230469 429.488281 C 599.339844 428.15625 598.417969 426.84375 597.460938 425.554688 C 596.507812 424.269531 595.519531 423.003906 594.503906 421.765625 C 593.488281 420.527344 592.441406 419.3125 591.363281 418.125 C 590.285156 416.9375 589.179688 415.777344 588.046875 414.640625 C 586.914062 413.507812 585.753906 412.402344 584.566406 411.324219 C 583.375 410.25 582.164062 409.203125 580.921875 408.183594 C 579.683594 407.167969 578.421875 406.183594 577.132812 405.226562 C 575.84375 404.273438 574.535156 403.347656 573.199219 402.457031 C 571.867188 401.566406 570.515625 400.710938 569.136719 399.886719 C 567.761719 399.0625 566.367188 398.269531 564.953125 397.515625 C 563.539062 396.757812 562.109375 396.039062 560.660156 395.351562 C 559.210938 394.667969 557.746094 394.019531 556.261719 393.40625 C 554.78125 392.789062 553.285156 392.214844 551.777344 391.675781 C 550.265625 391.132812 548.746094 390.632812 547.210938 390.164062 C 545.675781 389.699219 544.132812 389.273438 542.578125 388.882812 C 541.019531 388.492188 539.457031 388.140625 537.882812 387.828125 C 536.3125 387.515625 534.734375 387.242188 533.148438 387.007812 C 531.5625 386.773438 529.96875 386.574219 528.375 386.417969 C 526.777344 386.261719 525.179688 386.144531 523.578125 386.066406 C 521.976562 385.988281 520.375 385.945312 518.773438 385.945312 Z M 518.773438 385.945312 " fill-opacity="1" fill-rule="nonzero"/>
    </g>
    <g clip-path="url(#f8ffe5fb0b)">
        <path fill="#0026a3" d="M 426.898438 611.378906 L 390.023438 648.253906 L 390.023438 447.640625 C 390.023438 447.148438 389.976562 446.664062 389.882812 446.183594 C 389.785156 445.703125 389.644531 445.238281 389.457031 444.785156 C 389.269531 444.332031 389.039062 443.902344 388.765625 443.496094 C 388.496094 443.089844 388.1875 442.710938 387.839844 442.367188 C 387.492188 442.019531 387.117188 441.710938 386.710938 441.4375 C 386.300781 441.167969 385.871094 440.9375 385.421875 440.75 C 384.96875 440.5625 384.5 440.421875 384.019531 440.324219 C 383.539062 440.230469 383.054688 440.179688 382.566406 440.179688 C 382.074219 440.179688 381.589844 440.230469 381.109375 440.324219 C 380.628906 440.421875 380.164062 440.5625 379.710938 440.75 C 379.257812 440.9375 378.828125 441.167969 378.421875 441.4375 C 378.015625 441.710938 377.636719 442.019531 377.292969 442.367188 C 376.945312 442.710938 376.636719 443.089844 376.363281 443.496094 C 376.09375 443.902344 375.863281 444.332031 375.675781 444.785156 C 375.488281 445.238281 375.347656 445.703125 375.25 446.183594 C 375.15625 446.664062 375.105469 447.148438 375.105469 447.640625 L 375.105469 648.253906 L 338.234375 611.378906 C 337.886719 611.03125 337.507812 610.722656 337.101562 610.449219 C 336.695312 610.179688 336.265625 609.949219 335.8125 609.761719 C 335.359375 609.574219 334.894531 609.433594 334.414062 609.339844 C 333.933594 609.242188 333.445312 609.195312 332.957031 609.195312 C 332.46875 609.195312 331.980469 609.242188 331.503906 609.339844 C 331.023438 609.433594 330.554688 609.578125 330.101562 609.765625 C 329.652344 609.953125 329.21875 610.183594 328.8125 610.453125 C 328.40625 610.726562 328.03125 611.035156 327.683594 611.382812 C 327.335938 611.730469 327.027344 612.105469 326.757812 612.511719 C 326.484375 612.921875 326.253906 613.351562 326.066406 613.804688 C 325.878906 614.257812 325.738281 614.722656 325.644531 615.203125 C 325.546875 615.683594 325.5 616.167969 325.5 616.660156 C 325.5 617.148438 325.550781 617.632812 325.644531 618.113281 C 325.742188 618.59375 325.882812 619.058594 326.070312 619.511719 C 326.257812 619.964844 326.488281 620.394531 326.761719 620.800781 C 327.03125 621.210938 327.339844 621.585938 327.6875 621.933594 L 377.289062 671.542969 C 377.636719 671.886719 378.011719 672.199219 378.417969 672.46875 C 378.828125 672.742188 379.257812 672.972656 379.710938 673.160156 C 380.164062 673.347656 380.628906 673.488281 381.109375 673.585938 C 381.589844 673.679688 382.074219 673.730469 382.566406 673.730469 C 383.054688 673.730469 383.542969 673.679688 384.023438 673.585938 C 384.503906 673.488281 384.96875 673.347656 385.421875 673.160156 C 385.875 672.972656 386.304688 672.742188 386.710938 672.46875 C 387.121094 672.199219 387.496094 671.886719 387.84375 671.542969 L 437.445312 621.933594 C 437.773438 621.582031 438.070312 621.203125 438.328125 620.796875 C 438.585938 620.390625 438.804688 619.964844 438.980469 619.515625 C 439.15625 619.066406 439.289062 618.605469 439.375 618.132812 C 439.460938 617.660156 439.5 617.179688 439.492188 616.699219 C 439.488281 616.21875 439.4375 615.742188 439.335938 615.269531 C 439.238281 614.796875 439.09375 614.339844 438.910156 613.894531 C 438.722656 613.453125 438.492188 613.03125 438.222656 612.632812 C 437.957031 612.230469 437.652344 611.859375 437.308594 611.519531 C 436.96875 611.179688 436.597656 610.875 436.199219 610.605469 C 435.800781 610.335938 435.378906 610.109375 434.933594 609.921875 C 434.492188 609.734375 434.03125 609.59375 433.5625 609.492188 C 433.089844 609.394531 432.613281 609.34375 432.132812 609.335938 C 431.648438 609.332031 431.171875 609.371094 430.699219 609.457031 C 430.222656 609.542969 429.761719 609.675781 429.316406 609.851562 C 428.867188 610.027344 428.4375 610.242188 428.03125 610.5 C 427.625 610.761719 427.246094 611.054688 426.898438 611.386719 Z M 426.898438 611.378906 " fill-opacity="1" fill-rule="nonzero"/>
    </g>
    <g clip-path="url(#7606295c6f)">
        <g clip-path="url(#7cdb3aec32)">
            <path fill="#ff7ae3" d="M 412.042969 476.316406 L 514.441406 476.316406 L 514.441406 540.253906 L 412.042969 540.253906 Z M 412.042969 476.316406 " fill-opacity="1" fill-rule="nonzero"/>
        </g>
    </g>
    <g clip-path="url(#773c1a3c4d)">
        <g clip-path="url(#ea9cca1ece)">
            <path fill="#ff7ae3" d="M 252.179688 475.347656 L 354.582031 475.347656 L 354.582031 539.285156 L 252.179688 539.285156 Z M 252.179688 475.347656 " fill-opacity="1" fill-rule="nonzero"/>
        </g>
    </g>
</svg>