<svg id="Layer_1" data-name="Layer 1"
    xmlns="http://www.w3.org/2000/svg"
    xmlns:xlink="http://www.w3.org/1999/xlink" viewBox="0 0 78.9 68.17">
    <defs>
        <style>.cls-1{fill:none;}.cls-2{clip-path:url(#clip-path);}.cls-3{fill:#f964bc;}.cls-4{fill:#aa598d;}.cls-5{fill:#f7a1d8;}.cls-6{fill:#e54698;}.cls-7{fill:#ffb6e9;}.cls-8{fill:#b4f8ff;}.cls-9{fill:#6a9ba3;}.cls-10{fill:#e3fdff;}</style>
        <clipPath id="clip-path" transform="translate(0 0)">
            <rect class="cls-1" width="78.9" height="68.17"/>
        </clipPath>
    </defs>
    <g class="cls-2">
        <path class="cls-3" d="M76.87,60.39,73.4,65c-2.69,3.58-9.84,2.42-14.83-2.4L44.2,48.74c-3.8-3.66-5.06-8.27-3-11l.49-.66c2-2.72,6.82-2.8,11.4-.18l17.35,9.91c6,3.44,9.14,10,6.45,13.57" transform="translate(0 0)"/>
        <path class="cls-4" d="M68.5,68.17a16.16,16.16,0,0,1-10.67-4.79L43.46,49.5c-4.24-4.09-5.52-9.19-3.13-12.38l.5-.67c2.4-3.19,7.65-3.38,12.76-.46L70.94,45.9c4,2.31,7,6,7.78,9.69a6.57,6.57,0,0,1-1,5.43l-3.48,4.63a6.57,6.57,0,0,1-4.93,2.48,7.09,7.09,0,0,1-.81,0M46.55,36a4.84,4.84,0,0,0-4,1.68l-.5.66c-1.71,2.29-.49,6.32,2.91,9.6L59.3,61.86c2.88,2.78,6.75,4.42,9.84,4.17a4.62,4.62,0,0,0,3.42-1.65L76,59.75A4.59,4.59,0,0,0,76.65,56c-.63-3-3.28-6.29-6.76-8.28L52.55,37.82a12.44,12.44,0,0,0-6-1.78" transform="translate(0 0)"/>
        <path class="cls-5" d="M24.08,1.53C17.08,3.26,10.71,11,12.5,21.88,3,25.59-.48,35,1.66,42c1.92,6.91,9.75,13.21,20.47,11.26a142.4,142.4,0,0,0,27.51-8.17,2.4,2.4,0,0,0,.39-.2A3,3,0,0,0,51.4,42a147.63,147.63,0,0,0-7-27.87C40.48,3.39,31-.37,24.08,1.53" transform="translate(0 0)"/>
        <path class="cls-4" d="M18.24,54.66C9,54.66,2.44,48.71.64,42.27c-2.2-7.21,1.22-16.91,10.7-21.05C9.9,10.13,16.59,2.3,23.81.51c7.38-2,17.45,1.93,21.61,13.25a147.56,147.56,0,0,1,7,28.08,4,4,0,0,1-1.86,3.93,4.44,4.44,0,0,1-.53.28,144.36,144.36,0,0,1-27.72,8.23,22.57,22.57,0,0,1-4.09.38M27.68,2.11a12.49,12.49,0,0,0-3.32.43h0c-6.49,1.61-12.48,8.87-10.78,19.16l.13.84-.79.31C4,26.35.68,35.17,2.67,41.68,4.47,48.16,11.84,54,22,52.21A142.36,142.36,0,0,0,49.23,44.1a1,1,0,0,0,.23-.12,1.94,1.94,0,0,0,.89-1.85,146,146,0,0,0-6.91-27.65C40.32,6,33.58,2.11,27.68,2.11" transform="translate(0 0)"/>
        <path class="cls-3" d="M17.85,24.67a.45.45,0,0,1-.28.49c-6.48,2.4-9.07,8.63-7.56,13.6s6.91,8.78,13.82,7.53a102.87,102.87,0,0,0,19.56-5.81,1.41,1.41,0,0,0,.81-1.42,105.47,105.47,0,0,0-5-19.82c-2.56-7-8.68-9.94-13.7-8.56s-9,6.84-7.69,14" transform="translate(0 0)"/>
        <path class="cls-6" d="M38.62,18a105.43,105.43,0,0,1,5,19.82,1.39,1.39,0,0,1-.81,1.41A102.16,102.16,0,0,1,23.2,45c-5.77,1-10.56-1.41-12.8-5.18,1.85,4.45,7,7.59,13.43,6.43a102.87,102.87,0,0,0,19.56-5.81,1.41,1.41,0,0,0,.81-1.42,105.47,105.47,0,0,0-5-19.82,17.45,17.45,0,0,0-1.07-2.35c.16.36.31.72.45,1.1" transform="translate(0 0)"/>
        <path class="cls-7" d="M25.54,10.68c-5,1.25-9,6.84-7.69,14a.45.45,0,0,1-.28.49c-6.48,2.4-9.07,8.63-7.56,13.6.07.25.16.49.25.74C9.41,34.75,12.07,29.24,18.08,27a.46.46,0,0,0,.28-.5c-1.29-7.14,2.65-12.73,7.69-14s11.13,1.58,13.7,8.56c.75,2.06,1.45,4.28,2.09,6.54-.77-2.9-1.65-5.77-2.6-8.4-2.56-7-8.68-9.94-13.7-8.56" transform="translate(0 0)"/>
        <path class="cls-8" d="M17.85,24.67a.45.45,0,0,1-.28.49c-6.48,2.4-9.07,8.63-7.56,13.6s6.91,8.78,13.82,7.53a102.87,102.87,0,0,0,19.56-5.81,1.41,1.41,0,0,0,.81-1.42,105.47,105.47,0,0,0-5-19.82c-2.56-7-8.68-9.94-13.7-8.56s-9,6.84-7.69,14" transform="translate(0 0)"/>
        <path class="cls-9" d="M21.18,47.59A12.37,12.37,0,0,1,9,39c-1.56-5.1.92-11.9,7.73-14.68-1.19-7.88,3.46-13.44,8.56-14.7S37.34,11,40.23,18.88a106.08,106.08,0,0,1,5,20,2.44,2.44,0,0,1-1.44,2.53A102.79,102.79,0,0,1,24,47.32a15.74,15.74,0,0,1-2.84.27m6.76-36.17a7.8,7.8,0,0,0-2.12.28c-4.29,1.07-8.17,5.9-6.93,12.78h0a1.52,1.52,0,0,1-.95,1.67c-6,2.22-8.23,8-6.92,12.3s6,8,12.62,6.8A100.78,100.78,0,0,0,43,39.5a.32.32,0,0,0,.17-.29,103.82,103.82,0,0,0-4.9-19.61c-2.06-5.6-6.47-8.18-10.31-8.18" transform="translate(0 0)"/>
        <path class="cls-10" d="M27.12,15.89a2.4,2.4,0,1,1-3.28.9,2.39,2.39,0,0,1,3.28-.9" transform="translate(0 0)"/>
        <path class="cls-10" d="M31.19,15.56a1.15,1.15,0,1,1-1.57.43,1.14,1.14,0,0,1,1.57-.43" transform="translate(0 0)"/>
    </g>
</svg>