<svg xmlns="http://www.w3.org/2000/svg"
    xmlns:xlink="http://www.w3.org/1999/xlink" width="700" zoomAndPan="magnify" viewBox="0 0 525 525.000007" height="700" preserveAspectRatio="xMidYMid meet" version="1.0">
    <defs>
        <clipPath id="cf8193f529">
            <path d="M 52.898438 52.398438 L 472.101562 52.398438 L 472.101562 471.601562 L 52.898438 471.601562 Z M 52.898438 52.398438 " clip-rule="nonzero"/>
        </clipPath>
    </defs>
    <g clip-path="url(#cf8193f529)">
        <path fill="#ff7ae3" d="M 472.101562 262 C 472.101562 265.429688 472.015625 268.859375 471.847656 272.285156 C 471.679688 275.710938 471.425781 279.132812 471.089844 282.546875 C 470.753906 285.960938 470.335938 289.363281 469.832031 292.753906 C 469.328125 296.148438 468.742188 299.527344 468.074219 302.890625 C 467.402344 306.257812 466.652344 309.601562 465.820312 312.929688 C 464.984375 316.257812 464.070312 319.5625 463.074219 322.84375 C 462.078125 326.128906 461.003906 329.382812 459.847656 332.613281 C 458.691406 335.84375 457.457031 339.042969 456.144531 342.210938 C 454.832031 345.378906 453.445312 348.515625 451.976562 351.617188 C 450.511719 354.71875 448.96875 357.78125 447.351562 360.804688 C 445.734375 363.832031 444.042969 366.816406 442.28125 369.757812 C 440.515625 372.699219 438.683594 375.597656 436.777344 378.449219 C 434.871094 381.300781 432.894531 384.105469 430.851562 386.859375 C 428.808594 389.613281 426.699219 392.320312 424.523438 394.96875 C 422.347656 397.621094 420.109375 400.21875 417.804688 402.761719 C 415.5 405.300781 413.136719 407.785156 410.710938 410.210938 C 408.285156 412.636719 405.800781 415 403.257812 417.304688 C 400.71875 419.609375 398.121094 421.847656 395.46875 424.023438 C 392.816406 426.199219 390.113281 428.308594 387.359375 430.355469 C 384.605469 432.398438 381.800781 434.371094 378.949219 436.277344 C 376.097656 438.183594 373.199219 440.019531 370.257812 441.78125 C 367.3125 443.546875 364.332031 445.234375 361.304688 446.851562 C 358.28125 448.46875 355.214844 450.011719 352.117188 451.476562 C 349.015625 452.945312 345.878906 454.335938 342.710938 455.648438 C 339.542969 456.960938 336.34375 458.195312 333.113281 459.347656 C 329.882812 460.503906 326.625 461.582031 323.34375 462.578125 C 320.0625 463.570312 316.757812 464.488281 313.429688 465.320312 C 310.101562 466.152344 306.753906 466.90625 303.390625 467.574219 C 300.027344 468.242188 296.648438 468.828125 293.253906 469.332031 C 289.863281 469.835938 286.457031 470.257812 283.042969 470.59375 C 279.628906 470.929688 276.210938 471.179688 272.785156 471.347656 C 269.359375 471.515625 265.929688 471.601562 262.5 471.601562 C 259.070312 471.601562 255.640625 471.515625 252.214844 471.347656 C 248.789062 471.179688 245.371094 470.929688 241.957031 470.59375 C 238.542969 470.257812 235.136719 469.835938 231.746094 469.332031 C 228.351562 468.828125 224.972656 468.242188 221.609375 467.574219 C 218.246094 466.90625 214.898438 466.152344 211.570312 465.320312 C 208.242188 464.488281 204.9375 463.570312 201.65625 462.578125 C 198.375 461.582031 195.117188 460.503906 191.886719 459.347656 C 188.65625 458.195312 185.457031 456.960938 182.289062 455.648438 C 179.121094 454.335938 175.984375 452.945312 172.882812 451.476562 C 169.78125 450.011719 166.71875 448.46875 163.695312 446.851562 C 160.667969 445.234375 157.6875 443.546875 154.742188 441.78125 C 151.800781 440.019531 148.902344 438.183594 146.050781 436.277344 C 143.199219 434.371094 140.394531 432.398438 137.640625 430.355469 C 134.886719 428.308594 132.183594 426.199219 129.53125 424.023438 C 126.878906 421.847656 124.28125 419.609375 121.742188 417.304688 C 119.199219 415 116.714844 412.636719 114.289062 410.210938 C 111.863281 407.785156 109.5 405.300781 107.195312 402.761719 C 104.890625 400.21875 102.652344 397.621094 100.476562 394.96875 C 98.300781 392.320312 96.191406 389.613281 94.148438 386.859375 C 92.105469 384.105469 90.128906 381.300781 88.222656 378.449219 C 86.316406 375.597656 84.484375 372.699219 82.71875 369.757812 C 80.957031 366.816406 79.265625 363.832031 77.648438 360.804688 C 76.03125 357.78125 74.488281 354.71875 73.023438 351.617188 C 71.554688 348.515625 70.167969 345.378906 68.855469 342.210938 C 67.542969 339.042969 66.308594 335.84375 65.152344 332.613281 C 63.996094 329.382812 62.921875 326.128906 61.925781 322.84375 C 60.929688 319.5625 60.015625 316.257812 59.179688 312.929688 C 58.347656 309.601562 57.597656 306.257812 56.925781 302.890625 C 56.257812 299.527344 55.671875 296.148438 55.167969 292.753906 C 54.664062 289.363281 54.246094 285.960938 53.910156 282.546875 C 53.574219 279.132812 53.320312 275.710938 53.152344 272.285156 C 52.984375 268.859375 52.898438 265.429688 52.898438 262 C 52.898438 258.570312 52.984375 255.140625 53.152344 251.714844 C 53.320312 248.289062 53.574219 244.871094 53.910156 241.457031 C 54.246094 238.042969 54.664062 234.640625 55.167969 231.246094 C 55.671875 227.851562 56.257812 224.472656 56.925781 221.109375 C 57.597656 217.746094 58.347656 214.398438 59.179688 211.070312 C 60.015625 207.746094 60.929688 204.441406 61.925781 201.15625 C 62.921875 197.875 63.996094 194.617188 65.152344 191.386719 C 66.308594 188.160156 67.542969 184.960938 68.855469 181.789062 C 70.167969 178.621094 71.554688 175.484375 73.023438 172.386719 C 74.488281 169.285156 76.03125 166.222656 77.648438 163.195312 C 79.265625 160.171875 80.957031 157.1875 82.71875 154.246094 C 84.484375 151.300781 86.316406 148.40625 88.222656 145.554688 C 90.128906 142.699219 92.105469 139.898438 94.148438 137.140625 C 96.191406 134.386719 98.300781 131.683594 100.476562 129.03125 C 102.652344 126.378906 104.890625 123.785156 107.195312 121.242188 C 109.5 118.699219 111.863281 116.214844 114.289062 113.789062 C 116.714844 111.367188 119.199219 109 121.742188 106.695312 C 124.28125 104.394531 126.878906 102.152344 129.53125 99.976562 C 132.183594 97.800781 134.886719 95.691406 137.640625 93.648438 C 140.394531 91.605469 143.199219 89.628906 146.050781 87.722656 C 148.902344 85.820312 151.800781 83.984375 154.742188 82.21875 C 157.6875 80.457031 160.667969 78.765625 163.695312 77.148438 C 166.71875 75.53125 169.78125 73.992188 172.882812 72.523438 C 175.984375 71.058594 179.121094 69.667969 182.289062 68.355469 C 185.457031 67.042969 188.65625 65.808594 191.886719 64.652344 C 195.117188 63.496094 198.375 62.421875 201.65625 61.425781 C 204.9375 60.429688 208.242188 59.515625 211.570312 58.683594 C 214.898438 57.847656 218.246094 57.097656 221.609375 56.425781 C 224.972656 55.757812 228.351562 55.171875 231.746094 54.667969 C 235.136719 54.164062 238.542969 53.746094 241.957031 53.410156 C 245.371094 53.074219 248.789062 52.820312 252.214844 52.652344 C 255.640625 52.484375 259.070312 52.398438 262.5 52.398438 C 265.929688 52.398438 269.359375 52.484375 272.785156 52.652344 C 276.210938 52.820312 279.628906 53.074219 283.042969 53.410156 C 286.457031 53.746094 289.863281 54.164062 293.253906 54.667969 C 296.648438 55.171875 300.027344 55.757812 303.390625 56.425781 C 306.753906 57.097656 310.101562 57.847656 313.429688 58.683594 C 316.757812 59.515625 320.0625 60.429688 323.34375 61.425781 C 326.625 62.421875 329.882812 63.496094 333.113281 64.652344 C 336.34375 65.808594 339.542969 67.042969 342.710938 68.355469 C 345.878906 69.667969 349.015625 71.058594 352.117188 72.523438 C 355.214844 73.992188 358.28125 75.53125 361.304688 77.148438 C 364.332031 78.765625 367.3125 80.457031 370.257812 82.21875 C 373.199219 83.984375 376.097656 85.820312 378.949219 87.722656 C 381.800781 89.628906 384.605469 91.605469 387.359375 93.648438 C 390.113281 95.691406 392.816406 97.800781 395.46875 99.976562 C 398.121094 102.152344 400.71875 104.394531 403.257812 106.695312 C 405.800781 109 408.285156 111.367188 410.710938 113.789062 C 413.136719 116.214844 415.5 118.699219 417.804688 121.242188 C 420.109375 123.785156 422.347656 126.378906 424.523438 129.03125 C 426.699219 131.683594 428.808594 134.386719 430.851562 137.140625 C 432.894531 139.898438 434.871094 142.699219 436.777344 145.554688 C 438.683594 148.40625 440.515625 151.300781 442.28125 154.246094 C 444.042969 157.1875 445.734375 160.171875 447.351562 163.195312 C 448.96875 166.222656 450.511719 169.285156 451.976562 172.386719 C 453.445312 175.484375 454.832031 178.621094 456.144531 181.789062 C 457.457031 184.960938 458.691406 188.160156 459.847656 191.386719 C 461.003906 194.617188 462.078125 197.875 463.074219 201.15625 C 464.070312 204.441406 464.984375 207.746094 465.820312 211.070312 C 466.652344 214.398438 467.402344 217.746094 468.074219 221.109375 C 468.742188 224.472656 469.328125 227.851562 469.832031 231.246094 C 470.335938 234.640625 470.753906 238.042969 471.089844 241.457031 C 471.425781 244.871094 471.679688 248.289062 471.847656 251.714844 C 472.015625 255.140625 472.101562 258.570312 472.101562 262 Z M 472.101562 262 " fill-opacity="1" fill-rule="nonzero"/>
    </g>
    <path fill="#ffffff" d="M 400.523438 211.9375 L 283.941406 117.617188 C 283.171875 116.996094 282.332031 116.492188 281.421875 116.109375 C 280.507812 115.722656 279.5625 115.472656 278.578125 115.355469 C 277.597656 115.242188 276.617188 115.261719 275.640625 115.425781 C 274.664062 115.585938 273.730469 115.878906 272.839844 116.304688 C 271.945312 116.730469 271.128906 117.273438 270.390625 117.929688 C 269.648438 118.585938 269.015625 119.335938 268.488281 120.171875 C 267.960938 121.007812 267.558594 121.902344 267.285156 122.851562 C 267.007812 123.800781 266.871094 124.769531 266.871094 125.761719 L 266.871094 168.046875 C 180.378906 173.558594 131.058594 245.328125 131.058594 366.800781 C 131.058594 367.4375 131.117188 368.070312 131.234375 368.699219 C 131.351562 369.324219 131.523438 369.9375 131.75 370.53125 C 131.980469 371.125 132.257812 371.695312 132.589844 372.242188 C 132.921875 372.785156 133.300781 373.292969 133.726562 373.769531 C 134.152344 374.246094 134.617188 374.679688 135.121094 375.070312 C 135.625 375.460938 136.160156 375.800781 136.726562 376.09375 C 137.292969 376.386719 137.878906 376.625 138.488281 376.8125 C 139.101562 376.996094 139.722656 377.125 140.355469 377.199219 C 140.75 377.25 141.148438 377.273438 141.550781 377.269531 C 142.140625 377.269531 142.722656 377.21875 143.304688 377.121094 C 143.886719 377.019531 144.453125 376.875 145.011719 376.679688 C 145.566406 376.484375 146.101562 376.242188 146.617188 375.957031 C 147.132812 375.671875 147.621094 375.34375 148.082031 374.976562 C 148.542969 374.605469 148.96875 374.203125 149.359375 373.761719 C 149.753906 373.324219 150.105469 372.851562 150.417969 372.351562 C 150.730469 371.855469 151 371.332031 151.226562 370.785156 C 151.449219 370.242188 151.628906 369.683594 151.757812 369.105469 C 152.53125 365.699219 171.335938 288.410156 266.871094 273.894531 L 266.871094 314.402344 C 266.871094 315.390625 267.007812 316.359375 267.285156 317.3125 C 267.558594 318.261719 267.960938 319.15625 268.488281 319.992188 C 269.015625 320.828125 269.648438 321.574219 270.390625 322.230469 C 271.128906 322.886719 271.945312 323.429688 272.839844 323.855469 C 273.730469 324.28125 274.664062 324.574219 275.640625 324.738281 C 276.617188 324.898438 277.597656 324.921875 278.578125 324.804688 C 279.5625 324.6875 280.507812 324.4375 281.421875 324.054688 C 282.332031 323.667969 283.171875 323.167969 283.941406 322.542969 L 400.523438 228.222656 C 400.824219 227.980469 401.113281 227.71875 401.386719 227.441406 C 401.660156 227.164062 401.914062 226.871094 402.15625 226.566406 C 402.398438 226.261719 402.621094 225.945312 402.824219 225.613281 C 403.03125 225.285156 403.21875 224.941406 403.382812 224.589844 C 403.550781 224.242188 403.699219 223.882812 403.828125 223.511719 C 403.953125 223.144531 404.0625 222.773438 404.148438 222.394531 C 404.234375 222.015625 404.296875 221.628906 404.339844 221.242188 C 404.382812 220.859375 404.40625 220.46875 404.40625 220.082031 C 404.40625 219.691406 404.382812 219.304688 404.339844 218.917969 C 404.296875 218.53125 404.234375 218.148438 404.148438 217.769531 C 404.0625 217.390625 403.953125 217.015625 403.828125 216.648438 C 403.699219 216.28125 403.550781 215.921875 403.382812 215.570312 C 403.21875 215.21875 403.03125 214.878906 402.824219 214.546875 C 402.621094 214.21875 402.398438 213.898438 402.15625 213.59375 C 401.914062 213.289062 401.660156 212.996094 401.386719 212.71875 C 401.113281 212.445312 400.824219 212.183594 400.523438 211.9375 Z M 400.523438 211.9375 " fill-opacity="1" fill-rule="nonzero"/>
</svg>